<mxfile host="65bd71144e">
    <diagram id="ApinyqAWU0on4ZeDosA5" name="0-brainstorm">
        <mxGraphModel dx="1212" dy="947" grid="1" gridSize="10" guides="1" tooltips="1" connect="1" arrows="1" fold="1" page="1" pageScale="1" pageWidth="827" pageHeight="1169" math="0" shadow="0">
            <root>
                <mxCell id="0"/>
                <mxCell id="1" style="locked=1;" parent="0"/>
                <mxCell id="4" value="Remote / Kubernetes Cluster" style="rounded=0;whiteSpace=wrap;html=1;align=left;sketch=1;curveFitting=1;jiggle=2;fontFamily=Comic Sans MS;verticalAlign=top;" parent="1" vertex="1">
                    <mxGeometry x="40" y="220" width="480" height="300" as="geometry"/>
                </mxCell>
                <mxCell id="3" value="Service" style="rounded=0;whiteSpace=wrap;html=1;sketch=1;curveFitting=1;jiggle=2;fontFamily=Comic Sans MS;" parent="1" vertex="1">
                    <mxGeometry x="100" y="300" width="80" height="60" as="geometry"/>
                </mxCell>
                <mxCell id="6" value="Deployment" style="rounded=0;whiteSpace=wrap;html=1;sketch=1;curveFitting=1;jiggle=2;fontFamily=Comic Sans MS;align=left;verticalAlign=top;" parent="1" vertex="1">
                    <mxGeometry x="70" y="390" width="148.35" height="105" as="geometry"/>
                </mxCell>
                <mxCell id="5" value="Pod" style="rounded=0;whiteSpace=wrap;html=1;sketch=1;curveFitting=1;jiggle=2;fontFamily=Comic Sans MS;align=center;verticalAlign=middle;" parent="1" vertex="1">
                    <mxGeometry x="100" y="430" width="80.75" height="47.5" as="geometry"/>
                </mxCell>
                <mxCell id="51" style="edgeStyle=orthogonalEdgeStyle;sketch=1;hachureGap=4;jiggle=2;curveFitting=1;html=1;entryX=0.5;entryY=0;entryDx=0;entryDy=0;fontFamily=Comic Sans MS;fontSize=10;" parent="1" source="44" target="3" edge="1">
                    <mxGeometry relative="1" as="geometry"/>
                </mxCell>
                <mxCell id="44" value="Gateway" style="rounded=0;whiteSpace=wrap;html=1;sketch=1;curveFitting=1;jiggle=2;fontFamily=Comic Sans MS;" parent="1" vertex="1">
                    <mxGeometry x="240" y="250" width="80" height="60" as="geometry"/>
                </mxCell>
                <mxCell id="46" value="Service" style="rounded=0;whiteSpace=wrap;html=1;sketch=1;curveFitting=1;jiggle=2;fontFamily=Comic Sans MS;" parent="1" vertex="1">
                    <mxGeometry x="379.25" y="300" width="80" height="60" as="geometry"/>
                </mxCell>
                <mxCell id="47" value="Deployment" style="rounded=0;whiteSpace=wrap;html=1;sketch=1;curveFitting=1;jiggle=2;fontFamily=Comic Sans MS;align=left;verticalAlign=top;" parent="1" vertex="1">
                    <mxGeometry x="340" y="390" width="148.35" height="105" as="geometry"/>
                </mxCell>
                <mxCell id="48" value="Peering&lt;br&gt;Proxy" style="rounded=0;whiteSpace=wrap;html=1;sketch=1;curveFitting=1;jiggle=2;fontFamily=Comic Sans MS;align=center;verticalAlign=middle;" parent="1" vertex="1">
                    <mxGeometry x="370" y="430" width="80.75" height="47.5" as="geometry"/>
                </mxCell>
                <mxCell id="50" style="edgeStyle=orthogonalEdgeStyle;sketch=1;hachureGap=4;jiggle=2;curveFitting=1;html=1;entryX=0.5;entryY=0;entryDx=0;entryDy=0;fontFamily=Comic Sans MS;fontSize=10;" parent="1" source="49" target="44" edge="1">
                    <mxGeometry relative="1" as="geometry"/>
                </mxCell>
                <mxCell id="49" value="" style="ellipse;whiteSpace=wrap;html=1;aspect=fixed;sketch=1;hachureGap=4;jiggle=2;curveFitting=1;fontFamily=Comic Sans MS;fontSize=10;" parent="1" vertex="1">
                    <mxGeometry x="240" y="40" width="80" height="80" as="geometry"/>
                </mxCell>
                <mxCell id="52" value="" style="edgeStyle=orthogonalEdgeStyle;sketch=1;hachureGap=4;jiggle=2;curveFitting=1;html=1;fontFamily=Comic Sans MS;fontSize=10;" parent="1" source="3" target="5" edge="1">
                    <mxGeometry relative="1" as="geometry"/>
                </mxCell>
                <mxCell id="54" value="Remote / Kubernetes Cluster" style="rounded=0;whiteSpace=wrap;html=1;align=left;sketch=1;curveFitting=1;jiggle=2;fontFamily=Comic Sans MS;verticalAlign=top;" parent="1" vertex="1">
                    <mxGeometry x="40" y="775" width="480" height="300" as="geometry"/>
                </mxCell>
                <mxCell id="55" value="Service" style="rounded=0;whiteSpace=wrap;html=1;sketch=1;curveFitting=1;jiggle=2;fontFamily=Comic Sans MS;" parent="1" vertex="1">
                    <mxGeometry x="100" y="855" width="80" height="60" as="geometry"/>
                </mxCell>
                <mxCell id="56" value="Deployment" style="rounded=0;whiteSpace=wrap;html=1;sketch=1;curveFitting=1;jiggle=2;fontFamily=Comic Sans MS;align=left;verticalAlign=top;" parent="1" vertex="1">
                    <mxGeometry x="70" y="945" width="148.35" height="105" as="geometry"/>
                </mxCell>
                <mxCell id="57" value="Pod" style="rounded=0;whiteSpace=wrap;html=1;sketch=1;curveFitting=1;jiggle=2;fontFamily=Comic Sans MS;align=center;verticalAlign=middle;" parent="1" vertex="1">
                    <mxGeometry x="100" y="985" width="80.75" height="47.5" as="geometry"/>
                </mxCell>
                <mxCell id="66" style="edgeStyle=orthogonalEdgeStyle;sketch=1;hachureGap=4;jiggle=2;curveFitting=1;html=1;entryX=0.5;entryY=0;entryDx=0;entryDy=0;fontFamily=Comic Sans MS;fontSize=10;" parent="1" source="59" target="60" edge="1">
                    <mxGeometry relative="1" as="geometry"/>
                </mxCell>
                <mxCell id="59" value="Gateway" style="rounded=0;whiteSpace=wrap;html=1;sketch=1;curveFitting=1;jiggle=2;fontFamily=Comic Sans MS;" parent="1" vertex="1">
                    <mxGeometry x="240" y="805" width="80" height="60" as="geometry"/>
                </mxCell>
                <mxCell id="60" value="Service" style="rounded=0;whiteSpace=wrap;html=1;sketch=1;curveFitting=1;jiggle=2;fontFamily=Comic Sans MS;" parent="1" vertex="1">
                    <mxGeometry x="379.25" y="855" width="80" height="60" as="geometry"/>
                </mxCell>
                <mxCell id="61" value="Deployment" style="rounded=0;whiteSpace=wrap;html=1;sketch=1;curveFitting=1;jiggle=2;fontFamily=Comic Sans MS;align=left;verticalAlign=top;" parent="1" vertex="1">
                    <mxGeometry x="345.08" y="945" width="148.35" height="105" as="geometry"/>
                </mxCell>
                <mxCell id="72" style="edgeStyle=orthogonalEdgeStyle;sketch=1;hachureGap=4;jiggle=2;curveFitting=1;html=1;exitX=1;exitY=0.5;exitDx=0;exitDy=0;fontFamily=Comic Sans MS;fontSize=10;entryX=0.5;entryY=1;entryDx=0;entryDy=0;" parent="1" source="62" target="73" edge="1">
                    <mxGeometry relative="1" as="geometry">
                        <mxPoint x="610" y="780" as="targetPoint"/>
                    </mxGeometry>
                </mxCell>
                <mxCell id="62" value="Peering&lt;br&gt;Proxy" style="rounded=0;whiteSpace=wrap;html=1;sketch=1;curveFitting=1;jiggle=2;fontFamily=Comic Sans MS;align=center;verticalAlign=middle;" parent="1" vertex="1">
                    <mxGeometry x="379.25" y="985" width="80.75" height="47.5" as="geometry"/>
                </mxCell>
                <mxCell id="63" style="edgeStyle=orthogonalEdgeStyle;sketch=1;hachureGap=4;jiggle=2;curveFitting=1;html=1;entryX=0.5;entryY=0;entryDx=0;entryDy=0;fontFamily=Comic Sans MS;fontSize=10;" parent="1" source="64" target="59" edge="1">
                    <mxGeometry relative="1" as="geometry"/>
                </mxCell>
                <mxCell id="64" value="" style="ellipse;whiteSpace=wrap;html=1;aspect=fixed;sketch=1;hachureGap=4;jiggle=2;curveFitting=1;fontFamily=Comic Sans MS;fontSize=10;" parent="1" vertex="1">
                    <mxGeometry x="240" y="595" width="80" height="80" as="geometry"/>
                </mxCell>
                <mxCell id="70" style="edgeStyle=orthogonalEdgeStyle;sketch=1;hachureGap=4;jiggle=2;curveFitting=1;html=1;entryX=0.5;entryY=0;entryDx=0;entryDy=0;fontFamily=Comic Sans MS;fontSize=10;" parent="1" source="60" target="62" edge="1">
                    <mxGeometry relative="1" as="geometry"/>
                </mxCell>
                <mxCell id="76" value="" style="edgeStyle=orthogonalEdgeStyle;sketch=1;hachureGap=4;jiggle=2;curveFitting=1;html=1;fontFamily=Comic Sans MS;fontSize=10;" parent="1" source="73" target="75" edge="1">
                    <mxGeometry relative="1" as="geometry"/>
                </mxCell>
                <mxCell id="73" value="Peering&lt;br&gt;Proxy" style="rounded=0;whiteSpace=wrap;html=1;sketch=1;curveFitting=1;jiggle=2;fontFamily=Comic Sans MS;align=center;verticalAlign=middle;" parent="1" vertex="1">
                    <mxGeometry x="630.75" y="720" width="80.75" height="47.5" as="geometry"/>
                </mxCell>
                <mxCell id="75" value="Application" style="rounded=0;whiteSpace=wrap;html=1;sketch=1;curveFitting=1;jiggle=2;fontFamily=Comic Sans MS;" parent="1" vertex="1">
                    <mxGeometry x="630.75" y="605" width="80" height="60" as="geometry"/>
                </mxCell>
            </root>
        </mxGraphModel>
    </diagram>
    <diagram id="L__ugnqBoeclOctmBD2k" name="1-local-forward-demo">
        <mxGraphModel dx="1373" dy="733" grid="1" gridSize="10" guides="1" tooltips="1" connect="1" arrows="1" fold="1" page="1" pageScale="1" pageWidth="1169" pageHeight="827" math="0" shadow="0">
            <root>
                <mxCell id="0"/>
                <mxCell id="1" style="locked=1;" parent="0"/>
                <mxCell id="-HTNCD1tqTWRIRY3A008-3" value="«client»&lt;br&gt;&lt;b&gt;kpctl&lt;/b&gt;" style="html=1;dropTarget=0;hachureGap=4;fontFamily=Verdana;fontSize=20;" parent="1" vertex="1">
                    <mxGeometry x="120" y="240" width="160" height="120" as="geometry"/>
                </mxCell>
                <mxCell id="-HTNCD1tqTWRIRY3A008-4" value="" style="shape=module;jettyWidth=8;jettyHeight=4;hachureGap=4;fontFamily=Architects Daughter;fontSource=https%3A%2F%2Ffonts.googleapis.com%2Fcss%3Ffamily%3DArchitects%2BDaughter;fontSize=20;" parent="-HTNCD1tqTWRIRY3A008-3" vertex="1">
                    <mxGeometry x="1" width="20" height="20" relative="1" as="geometry">
                        <mxPoint x="-27" y="7" as="offset"/>
                    </mxGeometry>
                </mxCell>
                <mxCell id="-HTNCD1tqTWRIRY3A008-5" value="«server»&lt;br&gt;&lt;b&gt;kpeering&lt;/b&gt;" style="html=1;dropTarget=0;hachureGap=4;fontFamily=Verdana;fontSize=20;" parent="1" vertex="1">
                    <mxGeometry x="440" y="240" width="160" height="120" as="geometry"/>
                </mxCell>
                <mxCell id="-HTNCD1tqTWRIRY3A008-6" value="" style="shape=module;jettyWidth=8;jettyHeight=4;hachureGap=4;fontFamily=Architects Daughter;fontSource=https%3A%2F%2Ffonts.googleapis.com%2Fcss%3Ffamily%3DArchitects%2BDaughter;fontSize=20;" parent="-HTNCD1tqTWRIRY3A008-5" vertex="1">
                    <mxGeometry x="1" width="20" height="20" relative="1" as="geometry">
                        <mxPoint x="-27" y="7" as="offset"/>
                    </mxGeometry>
                </mxCell>
                <mxCell id="-HTNCD1tqTWRIRY3A008-7" value="" style="shape=providedRequiredInterface;html=1;verticalLabelPosition=bottom;sketch=0;fontFamily=Verdana;fillColor=#f8cecc;strokeColor=#b85450;" parent="1" vertex="1">
                    <mxGeometry x="350" y="290" width="20" height="20" as="geometry"/>
                </mxCell>
                <mxCell id="-HTNCD1tqTWRIRY3A008-8" value="" style="shape=providedRequiredInterface;html=1;verticalLabelPosition=bottom;sketch=0;fontFamily=Verdana;rotation=90;fillColor=#d5e8d4;strokeColor=#82b366;" parent="1" vertex="1">
                    <mxGeometry x="510" y="180" width="20" height="20" as="geometry"/>
                </mxCell>
                <mxCell id="-HTNCD1tqTWRIRY3A008-9" value="" style="ellipse;html=1;shape=endState;fillColor=#e1d5e7;strokeColor=#9673a6;fontFamily=Verdana;" parent="1" vertex="1">
                    <mxGeometry x="185" y="100" width="30" height="30" as="geometry"/>
                </mxCell>
                <mxCell id="-HTNCD1tqTWRIRY3A008-10" value="" style="ellipse;html=1;shape=startState;fontFamily=Verdana;fillColor=#d5e8d4;strokeColor=#82b366;" parent="1" vertex="1">
                    <mxGeometry x="505" y="100" width="30" height="30" as="geometry"/>
                </mxCell>
                <mxCell id="-HTNCD1tqTWRIRY3A008-12" value="" style="shape=providedRequiredInterface;html=1;verticalLabelPosition=bottom;sketch=0;fontFamily=Verdana;rotation=-90;fillColor=#e1d5e7;strokeColor=#9673a6;" parent="1" vertex="1">
                    <mxGeometry x="190" y="180" width="20" height="20" as="geometry"/>
                </mxCell>
                <mxCell id="-HTNCD1tqTWRIRY3A008-14" value="" style="whiteSpace=wrap;html=1;aspect=fixed;fontFamily=Verdana;fillColor=#e1d5e7;strokeColor=#9673a6;" parent="1" vertex="1">
                    <mxGeometry x="190" y="230" width="20" height="20" as="geometry"/>
                </mxCell>
                <mxCell id="-HTNCD1tqTWRIRY3A008-15" value="" style="whiteSpace=wrap;html=1;aspect=fixed;fontFamily=Verdana;fillColor=#f8cecc;strokeColor=#b85450;" parent="1" vertex="1">
                    <mxGeometry x="270" y="290" width="20" height="20" as="geometry"/>
                </mxCell>
                <mxCell id="-HTNCD1tqTWRIRY3A008-16" value="" style="whiteSpace=wrap;html=1;aspect=fixed;fontFamily=Verdana;fillColor=#f8cecc;strokeColor=#b85450;" parent="1" vertex="1">
                    <mxGeometry x="430" y="290" width="20" height="20" as="geometry"/>
                </mxCell>
                <mxCell id="-HTNCD1tqTWRIRY3A008-17" value="" style="whiteSpace=wrap;html=1;aspect=fixed;fontFamily=Verdana;fillColor=#d5e8d4;strokeColor=#82b366;" parent="1" vertex="1">
                    <mxGeometry x="510" y="230" width="20" height="20" as="geometry"/>
                </mxCell>
                <mxCell id="-HTNCD1tqTWRIRY3A008-26" value="" style="shape=providedRequiredInterface;html=1;verticalLabelPosition=bottom;sketch=0;fontFamily=Verdana;rotation=0;" parent="1" vertex="1">
                    <mxGeometry x="340" y="40" width="20" height="20" as="geometry"/>
                </mxCell>
                <mxCell id="-HTNCD1tqTWRIRY3A008-27" value="listen" style="text;html=1;align=center;verticalAlign=middle;resizable=0;points=[];autosize=1;strokeColor=none;fillColor=none;fontFamily=Verdana;" parent="1" vertex="1">
                    <mxGeometry x="360" y="35" width="60" height="30" as="geometry"/>
                </mxCell>
                <mxCell id="-HTNCD1tqTWRIRY3A008-28" value="dial" style="text;html=1;align=center;verticalAlign=middle;resizable=0;points=[];autosize=1;strokeColor=none;fillColor=none;fontFamily=Verdana;" parent="1" vertex="1">
                    <mxGeometry x="300" y="35" width="40" height="30" as="geometry"/>
                </mxCell>
                <mxCell id="-HTNCD1tqTWRIRY3A008-46" value="backdoor" style="text;html=1;align=center;verticalAlign=middle;resizable=0;points=[];autosize=1;strokeColor=none;fillColor=none;fontSize=8;fontFamily=Verdana;" parent="1" vertex="1">
                    <mxGeometry x="330" y="260" width="60" height="20" as="geometry"/>
                </mxCell>
                <mxCell id="-HTNCD1tqTWRIRY3A008-47" value="application" style="text;html=1;align=center;verticalAlign=middle;resizable=0;points=[];autosize=1;strokeColor=none;fillColor=none;fontSize=8;fontFamily=Verdana;" parent="1" vertex="1">
                    <mxGeometry x="115" y="180" width="70" height="20" as="geometry"/>
                </mxCell>
                <mxCell id="-HTNCD1tqTWRIRY3A008-48" value="frontdoor" style="text;html=1;align=center;verticalAlign=middle;resizable=0;points=[];autosize=1;strokeColor=none;fillColor=none;fontSize=8;fontFamily=Verdana;" parent="1" vertex="1">
                    <mxGeometry x="445" y="180" width="60" height="20" as="geometry"/>
                </mxCell>
                <mxCell id="X15v1AROQY2xj6JYQ8PZ-1" value="&lt;font style=&quot;font-size: 17px;&quot;&gt;Use layer to check more details&lt;/font&gt;" style="rounded=0;whiteSpace=wrap;html=1;fontFamily=Verdana;fontSize=8;" parent="1" vertex="1">
                    <mxGeometry x="740" y="280" width="120" height="140" as="geometry"/>
                </mxCell>
                <object label="init" id="-HTNCD1tqTWRIRY3A008-51">
                    <mxCell style="locked=1;" parent="0" visible="0"/>
                </object>
                <mxCell id="-HTNCD1tqTWRIRY3A008-52" style="edgeStyle=none;html=1;entryX=0;entryY=0.5;entryDx=0;entryDy=0;fontFamily=Verdana;fontSize=8;" parent="-HTNCD1tqTWRIRY3A008-51" edge="1">
                    <mxGeometry relative="1" as="geometry">
                        <mxPoint x="370" y="300" as="sourcePoint"/>
                        <mxPoint x="430" y="300" as="targetPoint"/>
                    </mxGeometry>
                </mxCell>
                <mxCell id="-HTNCD1tqTWRIRY3A008-53" value="" style="edgeStyle=none;html=1;fontFamily=Verdana;" parent="-HTNCD1tqTWRIRY3A008-51" edge="1">
                    <mxGeometry relative="1" as="geometry">
                        <mxPoint x="200" y="230" as="sourcePoint"/>
                        <mxPoint x="200" y="200" as="targetPoint"/>
                    </mxGeometry>
                </mxCell>
                <mxCell id="-HTNCD1tqTWRIRY3A008-54" value="" style="edgeStyle=none;html=1;fontFamily=Verdana;" parent="-HTNCD1tqTWRIRY3A008-51" edge="1">
                    <mxGeometry relative="1" as="geometry">
                        <mxPoint x="290" y="300" as="sourcePoint"/>
                        <mxPoint x="350" y="300" as="targetPoint"/>
                    </mxGeometry>
                </mxCell>
                <mxCell id="-HTNCD1tqTWRIRY3A008-55" style="edgeStyle=none;html=1;entryX=1;entryY=0.5;entryDx=0;entryDy=0;entryPerimeter=0;fontFamily=Verdana;" parent="-HTNCD1tqTWRIRY3A008-51" edge="1">
                    <mxGeometry relative="1" as="geometry">
                        <mxPoint x="520" y="230" as="sourcePoint"/>
                        <mxPoint x="520" y="200" as="targetPoint"/>
                    </mxGeometry>
                </mxCell>
                <mxCell id="-HTNCD1tqTWRIRY3A008-56" value="dial application endpoint" style="text;html=1;align=center;verticalAlign=middle;resizable=0;points=[];autosize=1;strokeColor=none;fillColor=none;fontFamily=Verdana;fontSize=8;" parent="-HTNCD1tqTWRIRY3A008-51" vertex="1">
                    <mxGeometry x="215" y="180" width="120" height="20" as="geometry"/>
                </mxCell>
                <mxCell id="-HTNCD1tqTWRIRY3A008-57" value="connect client/server at&lt;br&gt;backdoor endpoint" style="text;html=1;align=center;verticalAlign=middle;resizable=0;points=[];autosize=1;strokeColor=none;fillColor=none;fontFamily=Verdana;fontSize=8;" parent="-HTNCD1tqTWRIRY3A008-51" vertex="1">
                    <mxGeometry x="300" y="315" width="120" height="30" as="geometry"/>
                </mxCell>
                <mxCell id="-HTNCD1tqTWRIRY3A008-58" value="listen frontdoor endpoint" style="text;html=1;align=center;verticalAlign=middle;resizable=0;points=[];autosize=1;strokeColor=none;fillColor=none;fontSize=8;fontFamily=Verdana;" parent="-HTNCD1tqTWRIRY3A008-51" vertex="1">
                    <mxGeometry x="535" y="180" width="120" height="20" as="geometry"/>
                </mxCell>
                <object label="request" id="-HTNCD1tqTWRIRY3A008-19">
                    <mxCell style="locked=1;" parent="0" visible="0"/>
                </object>
                <mxCell id="-HTNCD1tqTWRIRY3A008-21" style="edgeStyle=none;html=1;entryX=0;entryY=0.5;entryDx=0;entryDy=0;entryPerimeter=0;fontFamily=Verdana;" parent="-HTNCD1tqTWRIRY3A008-19" source="-HTNCD1tqTWRIRY3A008-10" target="-HTNCD1tqTWRIRY3A008-8" edge="1">
                    <mxGeometry relative="1" as="geometry"/>
                </mxCell>
                <mxCell id="-HTNCD1tqTWRIRY3A008-22" style="edgeStyle=none;html=1;entryX=0.5;entryY=0;entryDx=0;entryDy=0;fontFamily=Verdana;" parent="-HTNCD1tqTWRIRY3A008-19" source="-HTNCD1tqTWRIRY3A008-8" target="-HTNCD1tqTWRIRY3A008-17" edge="1">
                    <mxGeometry relative="1" as="geometry"/>
                </mxCell>
                <mxCell id="-HTNCD1tqTWRIRY3A008-23" style="edgeStyle=none;html=1;entryX=1;entryY=0.5;entryDx=0;entryDy=0;entryPerimeter=0;fontFamily=Verdana;" parent="-HTNCD1tqTWRIRY3A008-19" target="-HTNCD1tqTWRIRY3A008-7" edge="1">
                    <mxGeometry relative="1" as="geometry">
                        <mxPoint x="430" y="300" as="sourcePoint"/>
                    </mxGeometry>
                </mxCell>
                <mxCell id="-HTNCD1tqTWRIRY3A008-32" value="" style="edgeStyle=none;html=1;fontFamily=Verdana;" parent="-HTNCD1tqTWRIRY3A008-19" edge="1">
                    <mxGeometry relative="1" as="geometry">
                        <mxPoint x="350" y="300" as="sourcePoint"/>
                        <mxPoint x="290" y="300" as="targetPoint"/>
                    </mxGeometry>
                </mxCell>
                <mxCell id="-HTNCD1tqTWRIRY3A008-33" value="" style="edgeStyle=none;html=1;fontFamily=Verdana;" parent="-HTNCD1tqTWRIRY3A008-19" edge="1">
                    <mxGeometry relative="1" as="geometry">
                        <mxPoint x="200" y="180" as="sourcePoint"/>
                        <mxPoint x="200" y="130" as="targetPoint"/>
                    </mxGeometry>
                </mxCell>
                <mxCell id="-HTNCD1tqTWRIRY3A008-34" value="" style="edgeStyle=none;html=1;fontFamily=Verdana;" parent="-HTNCD1tqTWRIRY3A008-19" edge="1">
                    <mxGeometry relative="1" as="geometry">
                        <mxPoint x="200" y="230" as="sourcePoint"/>
                        <mxPoint x="200" y="200" as="targetPoint"/>
                    </mxGeometry>
                </mxCell>
                <object label="response" id="-HTNCD1tqTWRIRY3A008-59">
                    <mxCell style="locked=1;" parent="0"/>
                </object>
                <mxCell id="-HTNCD1tqTWRIRY3A008-66" style="edgeStyle=none;html=1;entryX=0;entryY=0.5;entryDx=0;entryDy=0;entryPerimeter=0;fontFamily=Verdana;endArrow=none;endFill=0;startArrow=classic;startFill=1;" parent="-HTNCD1tqTWRIRY3A008-59" edge="1">
                    <mxGeometry relative="1" as="geometry">
                        <mxPoint x="521" y="130" as="sourcePoint"/>
                        <mxPoint x="521" y="180" as="targetPoint"/>
                        <Array as="points">
                            <mxPoint x="521" y="150"/>
                        </Array>
                    </mxGeometry>
                </mxCell>
                <mxCell id="-HTNCD1tqTWRIRY3A008-67" style="edgeStyle=none;html=1;entryX=0.5;entryY=0;entryDx=0;entryDy=0;fontFamily=Verdana;endArrow=none;endFill=0;startArrow=classic;startFill=1;" parent="-HTNCD1tqTWRIRY3A008-59" edge="1">
                    <mxGeometry relative="1" as="geometry">
                        <mxPoint x="521" y="200" as="sourcePoint"/>
                        <mxPoint x="521" y="230" as="targetPoint"/>
                    </mxGeometry>
                </mxCell>
                <mxCell id="-HTNCD1tqTWRIRY3A008-68" style="edgeStyle=none;html=1;entryX=1;entryY=0.5;entryDx=0;entryDy=0;entryPerimeter=0;fontFamily=Verdana;endArrow=none;endFill=0;startArrow=classic;startFill=1;" parent="-HTNCD1tqTWRIRY3A008-59" edge="1">
                    <mxGeometry relative="1" as="geometry">
                        <mxPoint x="431" y="300" as="sourcePoint"/>
                        <mxPoint x="371" y="300" as="targetPoint"/>
                    </mxGeometry>
                </mxCell>
                <mxCell id="-HTNCD1tqTWRIRY3A008-69" value="" style="edgeStyle=none;html=1;fontFamily=Verdana;endArrow=none;endFill=0;startArrow=classic;startFill=1;" parent="-HTNCD1tqTWRIRY3A008-59" edge="1">
                    <mxGeometry relative="1" as="geometry">
                        <mxPoint x="351" y="300" as="sourcePoint"/>
                        <mxPoint x="291" y="300" as="targetPoint"/>
                    </mxGeometry>
                </mxCell>
                <mxCell id="-HTNCD1tqTWRIRY3A008-70" value="" style="edgeStyle=none;html=1;fontFamily=Verdana;endArrow=none;endFill=0;startArrow=classic;startFill=1;" parent="-HTNCD1tqTWRIRY3A008-59" edge="1">
                    <mxGeometry relative="1" as="geometry">
                        <mxPoint x="201" y="180" as="sourcePoint"/>
                        <mxPoint x="201" y="130" as="targetPoint"/>
                    </mxGeometry>
                </mxCell>
                <mxCell id="-HTNCD1tqTWRIRY3A008-71" value="" style="edgeStyle=none;html=1;fontFamily=Verdana;endArrow=none;endFill=0;startArrow=classic;startFill=1;" parent="-HTNCD1tqTWRIRY3A008-59" edge="1">
                    <mxGeometry relative="1" as="geometry">
                        <mxPoint x="201" y="230" as="sourcePoint"/>
                        <mxPoint x="201" y="200" as="targetPoint"/>
                    </mxGeometry>
                </mxCell>
            </root>
        </mxGraphModel>
    </diagram>
    <diagram name="2-tunnel-forwarding" id="-R47O-1bTOu3wR-DdyhR">
        <mxGraphModel dx="1212" dy="947" grid="1" gridSize="10" guides="1" tooltips="1" connect="1" arrows="1" fold="1" page="1" pageScale="1" pageWidth="1169" pageHeight="827" math="0" shadow="0">
            <root>
                <mxCell id="0oBJs2MqLXqH3Ror9UuX-0"/>
                <mxCell id="0oBJs2MqLXqH3Ror9UuX-1" style="" parent="0oBJs2MqLXqH3Ror9UuX-0"/>
                <mxCell id="0oBJs2MqLXqH3Ror9UuX-2" value="«client»&lt;br&gt;&lt;b&gt;kpctl&lt;/b&gt;" style="html=1;dropTarget=0;hachureGap=4;fontFamily=Verdana;fontSize=20;" parent="0oBJs2MqLXqH3Ror9UuX-1" vertex="1">
                    <mxGeometry x="120" y="240" width="160" height="120" as="geometry"/>
                </mxCell>
                <mxCell id="0oBJs2MqLXqH3Ror9UuX-3" value="" style="shape=module;jettyWidth=8;jettyHeight=4;hachureGap=4;fontFamily=Architects Daughter;fontSource=https%3A%2F%2Ffonts.googleapis.com%2Fcss%3Ffamily%3DArchitects%2BDaughter;fontSize=20;" parent="0oBJs2MqLXqH3Ror9UuX-2" vertex="1">
                    <mxGeometry x="1" width="20" height="20" relative="1" as="geometry">
                        <mxPoint x="-27" y="7" as="offset"/>
                    </mxGeometry>
                </mxCell>
                <mxCell id="0oBJs2MqLXqH3Ror9UuX-4" value="«server»&lt;br&gt;&lt;b&gt;kpeering&lt;/b&gt;" style="html=1;dropTarget=0;hachureGap=4;fontFamily=Verdana;fontSize=20;" parent="0oBJs2MqLXqH3Ror9UuX-1" vertex="1">
                    <mxGeometry x="440" y="240" width="160" height="120" as="geometry"/>
                </mxCell>
                <mxCell id="0oBJs2MqLXqH3Ror9UuX-5" value="" style="shape=module;jettyWidth=8;jettyHeight=4;hachureGap=4;fontFamily=Architects Daughter;fontSource=https%3A%2F%2Ffonts.googleapis.com%2Fcss%3Ffamily%3DArchitects%2BDaughter;fontSize=20;" parent="0oBJs2MqLXqH3Ror9UuX-4" vertex="1">
                    <mxGeometry x="1" width="20" height="20" relative="1" as="geometry">
                        <mxPoint x="-27" y="7" as="offset"/>
                    </mxGeometry>
                </mxCell>
                <mxCell id="0oBJs2MqLXqH3Ror9UuX-6" value="" style="shape=providedRequiredInterface;html=1;verticalLabelPosition=bottom;sketch=0;fontFamily=Verdana;fillColor=#f8cecc;strokeColor=#b85450;" parent="0oBJs2MqLXqH3Ror9UuX-1" vertex="1">
                    <mxGeometry x="350" y="290" width="20" height="20" as="geometry"/>
                </mxCell>
                <mxCell id="8oIQF7GS6xDYKXsnwrHK-30" value="" style="edgeStyle=none;html=1;" parent="0oBJs2MqLXqH3Ror9UuX-1" source="0oBJs2MqLXqH3Ror9UuX-7" target="0oBJs2MqLXqH3Ror9UuX-14" edge="1">
                    <mxGeometry relative="1" as="geometry"/>
                </mxCell>
                <mxCell id="0oBJs2MqLXqH3Ror9UuX-7" value="" style="shape=providedRequiredInterface;html=1;verticalLabelPosition=bottom;sketch=0;fontFamily=Verdana;rotation=90;fillColor=#d5e8d4;strokeColor=#82b366;" parent="0oBJs2MqLXqH3Ror9UuX-1" vertex="1">
                    <mxGeometry x="510" y="180" width="20" height="20" as="geometry"/>
                </mxCell>
                <mxCell id="0oBJs2MqLXqH3Ror9UuX-8" value="" style="ellipse;html=1;shape=endState;fillColor=#e1d5e7;strokeColor=#9673a6;fontFamily=Verdana;" parent="0oBJs2MqLXqH3Ror9UuX-1" vertex="1">
                    <mxGeometry x="185" y="100" width="30" height="30" as="geometry"/>
                </mxCell>
                <mxCell id="0oBJs2MqLXqH3Ror9UuX-9" value="" style="ellipse;html=1;shape=startState;fontFamily=Verdana;fillColor=#d5e8d4;strokeColor=#82b366;" parent="0oBJs2MqLXqH3Ror9UuX-1" vertex="1">
                    <mxGeometry x="505" y="100" width="30" height="30" as="geometry"/>
                </mxCell>
                <mxCell id="0oBJs2MqLXqH3Ror9UuX-10" value="" style="shape=providedRequiredInterface;html=1;verticalLabelPosition=bottom;sketch=0;fontFamily=Verdana;rotation=-90;fillColor=#e1d5e7;strokeColor=#9673a6;" parent="0oBJs2MqLXqH3Ror9UuX-1" vertex="1">
                    <mxGeometry x="190" y="180" width="20" height="20" as="geometry"/>
                </mxCell>
                <mxCell id="0oBJs2MqLXqH3Ror9UuX-11" value="" style="whiteSpace=wrap;html=1;aspect=fixed;fontFamily=Verdana;fillColor=#e1d5e7;strokeColor=#9673a6;" parent="0oBJs2MqLXqH3Ror9UuX-1" vertex="1">
                    <mxGeometry x="190" y="230" width="20" height="20" as="geometry"/>
                </mxCell>
                <mxCell id="0oBJs2MqLXqH3Ror9UuX-12" value="" style="whiteSpace=wrap;html=1;aspect=fixed;fontFamily=Verdana;fillColor=#f8cecc;strokeColor=#b85450;" parent="0oBJs2MqLXqH3Ror9UuX-1" vertex="1">
                    <mxGeometry x="270" y="290" width="20" height="20" as="geometry"/>
                </mxCell>
                <mxCell id="0oBJs2MqLXqH3Ror9UuX-13" value="" style="whiteSpace=wrap;html=1;aspect=fixed;fontFamily=Verdana;fillColor=#f8cecc;strokeColor=#b85450;" parent="0oBJs2MqLXqH3Ror9UuX-1" vertex="1">
                    <mxGeometry x="430" y="290" width="20" height="20" as="geometry"/>
                </mxCell>
                <mxCell id="0oBJs2MqLXqH3Ror9UuX-14" value="" style="whiteSpace=wrap;html=1;aspect=fixed;fontFamily=Verdana;fillColor=#d5e8d4;strokeColor=#82b366;" parent="0oBJs2MqLXqH3Ror9UuX-1" vertex="1">
                    <mxGeometry x="510" y="230" width="20" height="20" as="geometry"/>
                </mxCell>
                <mxCell id="0oBJs2MqLXqH3Ror9UuX-15" value="" style="shape=providedRequiredInterface;html=1;verticalLabelPosition=bottom;sketch=0;fontFamily=Verdana;rotation=0;" parent="0oBJs2MqLXqH3Ror9UuX-1" vertex="1">
                    <mxGeometry x="340" y="40" width="20" height="20" as="geometry"/>
                </mxCell>
                <mxCell id="0oBJs2MqLXqH3Ror9UuX-16" value="listen" style="text;html=1;align=center;verticalAlign=middle;resizable=0;points=[];autosize=1;strokeColor=none;fillColor=none;fontFamily=Verdana;" parent="0oBJs2MqLXqH3Ror9UuX-1" vertex="1">
                    <mxGeometry x="360" y="35" width="60" height="30" as="geometry"/>
                </mxCell>
                <mxCell id="0oBJs2MqLXqH3Ror9UuX-17" value="dial" style="text;html=1;align=center;verticalAlign=middle;resizable=0;points=[];autosize=1;strokeColor=none;fillColor=none;fontFamily=Verdana;" parent="0oBJs2MqLXqH3Ror9UuX-1" vertex="1">
                    <mxGeometry x="300" y="35" width="40" height="30" as="geometry"/>
                </mxCell>
                <mxCell id="0oBJs2MqLXqH3Ror9UuX-18" value="tunnel" style="text;html=1;align=center;verticalAlign=middle;resizable=0;points=[];autosize=1;strokeColor=none;fillColor=none;fontSize=8;fontFamily=Verdana;" parent="0oBJs2MqLXqH3Ror9UuX-1" vertex="1">
                    <mxGeometry x="335" y="260" width="50" height="20" as="geometry"/>
                </mxCell>
                <mxCell id="0oBJs2MqLXqH3Ror9UuX-19" value="application" style="text;html=1;align=center;verticalAlign=middle;resizable=0;points=[];autosize=1;strokeColor=none;fillColor=none;fontSize=8;fontFamily=Verdana;" parent="0oBJs2MqLXqH3Ror9UuX-1" vertex="1">
                    <mxGeometry x="100" y="105" width="70" height="20" as="geometry"/>
                </mxCell>
                <mxCell id="0oBJs2MqLXqH3Ror9UuX-20" value="requestor" style="text;html=1;align=center;verticalAlign=middle;resizable=0;points=[];autosize=1;strokeColor=none;fillColor=none;fontSize=8;fontFamily=Verdana;" parent="0oBJs2MqLXqH3Ror9UuX-1" vertex="1">
                    <mxGeometry x="555" y="105" width="60" height="20" as="geometry"/>
                </mxCell>
                <mxCell id="0oBJs2MqLXqH3Ror9UuX-21" value="&lt;font style=&quot;font-size: 17px;&quot;&gt;Use layer to check more details&lt;/font&gt;" style="rounded=0;whiteSpace=wrap;html=1;fontFamily=Verdana;fontSize=8;" parent="0oBJs2MqLXqH3Ror9UuX-1" vertex="1">
                    <mxGeometry x="740" y="280" width="120" height="140" as="geometry"/>
                </mxCell>
                <object label="TCP/init" id="0oBJs2MqLXqH3Ror9UuX-22">
                    <mxCell style="" parent="0oBJs2MqLXqH3Ror9UuX-0" visible="0"/>
                </object>
                <mxCell id="0oBJs2MqLXqH3Ror9UuX-23" style="edgeStyle=none;html=1;entryX=0;entryY=0.5;entryDx=0;entryDy=0;fontFamily=Verdana;fontSize=8;" parent="0oBJs2MqLXqH3Ror9UuX-22" edge="1">
                    <mxGeometry relative="1" as="geometry">
                        <mxPoint x="370" y="300" as="sourcePoint"/>
                        <mxPoint x="430" y="300" as="targetPoint"/>
                    </mxGeometry>
                </mxCell>
                <mxCell id="0oBJs2MqLXqH3Ror9UuX-24" value="" style="edgeStyle=none;html=1;fontFamily=Verdana;" parent="0oBJs2MqLXqH3Ror9UuX-22" edge="1">
                    <mxGeometry relative="1" as="geometry">
                        <mxPoint x="200" y="230" as="sourcePoint"/>
                        <mxPoint x="200" y="200" as="targetPoint"/>
                    </mxGeometry>
                </mxCell>
                <mxCell id="0oBJs2MqLXqH3Ror9UuX-25" value="" style="edgeStyle=none;html=1;fontFamily=Verdana;" parent="0oBJs2MqLXqH3Ror9UuX-22" edge="1">
                    <mxGeometry relative="1" as="geometry">
                        <mxPoint x="290" y="300" as="sourcePoint"/>
                        <mxPoint x="350" y="300" as="targetPoint"/>
                    </mxGeometry>
                </mxCell>
                <mxCell id="0oBJs2MqLXqH3Ror9UuX-26" style="edgeStyle=none;html=1;entryX=1;entryY=0.5;entryDx=0;entryDy=0;entryPerimeter=0;fontFamily=Verdana;" parent="0oBJs2MqLXqH3Ror9UuX-22" edge="1">
                    <mxGeometry relative="1" as="geometry">
                        <mxPoint x="520" y="230" as="sourcePoint"/>
                        <mxPoint x="520" y="200" as="targetPoint"/>
                    </mxGeometry>
                </mxCell>
                <mxCell id="0oBJs2MqLXqH3Ror9UuX-27" value="connect to the application" style="text;html=1;align=center;verticalAlign=middle;resizable=0;points=[];autosize=1;strokeColor=none;fillColor=none;fontFamily=Verdana;fontSize=8;" parent="0oBJs2MqLXqH3Ror9UuX-22" vertex="1">
                    <mxGeometry x="55" y="180" width="130" height="20" as="geometry"/>
                </mxCell>
                <mxCell id="0oBJs2MqLXqH3Ror9UuX-28" value="connect server to build the tunnel" style="text;html=1;align=center;verticalAlign=middle;resizable=0;points=[];autosize=1;strokeColor=none;fillColor=none;fontFamily=Verdana;fontSize=8;" parent="0oBJs2MqLXqH3Ror9UuX-22" vertex="1">
                    <mxGeometry x="280" y="320" width="160" height="20" as="geometry"/>
                </mxCell>
                <mxCell id="0oBJs2MqLXqH3Ror9UuX-29" value="listen to the port" style="text;html=1;align=center;verticalAlign=middle;resizable=0;points=[];autosize=1;strokeColor=none;fillColor=none;fontSize=8;fontFamily=Verdana;" parent="0oBJs2MqLXqH3Ror9UuX-22" vertex="1">
                    <mxGeometry x="540" y="180" width="90" height="20" as="geometry"/>
                </mxCell>
                <object label="TCP/request" id="0oBJs2MqLXqH3Ror9UuX-30">
                    <mxCell style="" parent="0oBJs2MqLXqH3Ror9UuX-0"/>
                </object>
                <mxCell id="0oBJs2MqLXqH3Ror9UuX-31" style="edgeStyle=none;html=1;entryX=0;entryY=0.5;entryDx=0;entryDy=0;entryPerimeter=0;fontFamily=Verdana;" parent="0oBJs2MqLXqH3Ror9UuX-30" source="0oBJs2MqLXqH3Ror9UuX-9" target="0oBJs2MqLXqH3Ror9UuX-7" edge="1">
                    <mxGeometry relative="1" as="geometry"/>
                </mxCell>
                <mxCell id="0oBJs2MqLXqH3Ror9UuX-32" style="edgeStyle=none;html=1;entryX=0.5;entryY=0;entryDx=0;entryDy=0;fontFamily=Verdana;" parent="0oBJs2MqLXqH3Ror9UuX-30" source="0oBJs2MqLXqH3Ror9UuX-7" target="0oBJs2MqLXqH3Ror9UuX-14" edge="1">
                    <mxGeometry relative="1" as="geometry"/>
                </mxCell>
                <mxCell id="0oBJs2MqLXqH3Ror9UuX-33" style="edgeStyle=none;html=1;entryX=1;entryY=0.5;entryDx=0;entryDy=0;entryPerimeter=0;fontFamily=Verdana;" parent="0oBJs2MqLXqH3Ror9UuX-30" target="0oBJs2MqLXqH3Ror9UuX-6" edge="1">
                    <mxGeometry relative="1" as="geometry">
                        <mxPoint x="430" y="300" as="sourcePoint"/>
                    </mxGeometry>
                </mxCell>
                <mxCell id="0oBJs2MqLXqH3Ror9UuX-34" value="" style="edgeStyle=none;html=1;fontFamily=Verdana;" parent="0oBJs2MqLXqH3Ror9UuX-30" edge="1">
                    <mxGeometry relative="1" as="geometry">
                        <mxPoint x="350" y="300" as="sourcePoint"/>
                        <mxPoint x="290" y="300" as="targetPoint"/>
                    </mxGeometry>
                </mxCell>
                <mxCell id="0oBJs2MqLXqH3Ror9UuX-35" value="" style="edgeStyle=none;html=1;fontFamily=Verdana;" parent="0oBJs2MqLXqH3Ror9UuX-30" edge="1">
                    <mxGeometry relative="1" as="geometry">
                        <mxPoint x="200" y="180" as="sourcePoint"/>
                        <mxPoint x="200" y="130" as="targetPoint"/>
                    </mxGeometry>
                </mxCell>
                <mxCell id="0oBJs2MqLXqH3Ror9UuX-36" value="" style="edgeStyle=none;html=1;fontFamily=Verdana;" parent="0oBJs2MqLXqH3Ror9UuX-30" edge="1">
                    <mxGeometry relative="1" as="geometry">
                        <mxPoint x="200" y="230" as="sourcePoint"/>
                        <mxPoint x="200" y="200" as="targetPoint"/>
                    </mxGeometry>
                </mxCell>
                <mxCell id="8oIQF7GS6xDYKXsnwrHK-9" value="copy the package" style="text;html=1;align=center;verticalAlign=middle;resizable=0;points=[];autosize=1;strokeColor=none;fillColor=none;fontSize=8;fontFamily=Verdana;" parent="0oBJs2MqLXqH3Ror9UuX-30" vertex="1">
                    <mxGeometry x="320" y="320" width="90" height="20" as="geometry"/>
                </mxCell>
                <object label="TCP/response" id="0oBJs2MqLXqH3Ror9UuX-37">
                    <mxCell style="" parent="0oBJs2MqLXqH3Ror9UuX-0" visible="0"/>
                </object>
                <mxCell id="0oBJs2MqLXqH3Ror9UuX-38" style="edgeStyle=none;html=1;entryX=0;entryY=0.5;entryDx=0;entryDy=0;entryPerimeter=0;fontFamily=Verdana;endArrow=none;endFill=0;startArrow=classic;startFill=1;" parent="0oBJs2MqLXqH3Ror9UuX-37" edge="1">
                    <mxGeometry relative="1" as="geometry">
                        <mxPoint x="521" y="130" as="sourcePoint"/>
                        <mxPoint x="521" y="180" as="targetPoint"/>
                        <Array as="points">
                            <mxPoint x="521" y="150"/>
                        </Array>
                    </mxGeometry>
                </mxCell>
                <mxCell id="0oBJs2MqLXqH3Ror9UuX-39" style="edgeStyle=none;html=1;entryX=0.5;entryY=0;entryDx=0;entryDy=0;fontFamily=Verdana;endArrow=none;endFill=0;startArrow=classic;startFill=1;" parent="0oBJs2MqLXqH3Ror9UuX-37" edge="1">
                    <mxGeometry relative="1" as="geometry">
                        <mxPoint x="521" y="200" as="sourcePoint"/>
                        <mxPoint x="521" y="230" as="targetPoint"/>
                    </mxGeometry>
                </mxCell>
                <mxCell id="0oBJs2MqLXqH3Ror9UuX-40" style="edgeStyle=none;html=1;entryX=1;entryY=0.5;entryDx=0;entryDy=0;entryPerimeter=0;fontFamily=Verdana;endArrow=none;endFill=0;startArrow=classic;startFill=1;" parent="0oBJs2MqLXqH3Ror9UuX-37" edge="1">
                    <mxGeometry relative="1" as="geometry">
                        <mxPoint x="431" y="300" as="sourcePoint"/>
                        <mxPoint x="371" y="300" as="targetPoint"/>
                    </mxGeometry>
                </mxCell>
                <mxCell id="0oBJs2MqLXqH3Ror9UuX-41" value="" style="edgeStyle=none;html=1;fontFamily=Verdana;endArrow=none;endFill=0;startArrow=classic;startFill=1;" parent="0oBJs2MqLXqH3Ror9UuX-37" edge="1">
                    <mxGeometry relative="1" as="geometry">
                        <mxPoint x="351" y="300" as="sourcePoint"/>
                        <mxPoint x="291" y="300" as="targetPoint"/>
                    </mxGeometry>
                </mxCell>
                <mxCell id="0oBJs2MqLXqH3Ror9UuX-42" value="" style="edgeStyle=none;html=1;fontFamily=Verdana;endArrow=none;endFill=0;startArrow=classic;startFill=1;" parent="0oBJs2MqLXqH3Ror9UuX-37" edge="1">
                    <mxGeometry relative="1" as="geometry">
                        <mxPoint x="201" y="180" as="sourcePoint"/>
                        <mxPoint x="201" y="130" as="targetPoint"/>
                    </mxGeometry>
                </mxCell>
                <mxCell id="0oBJs2MqLXqH3Ror9UuX-43" value="" style="edgeStyle=none;html=1;fontFamily=Verdana;endArrow=none;endFill=0;startArrow=classic;startFill=1;" parent="0oBJs2MqLXqH3Ror9UuX-37" edge="1">
                    <mxGeometry relative="1" as="geometry">
                        <mxPoint x="201" y="230" as="sourcePoint"/>
                        <mxPoint x="201" y="200" as="targetPoint"/>
                    </mxGeometry>
                </mxCell>
                <object label="HTTP/init" id="8oIQF7GS6xDYKXsnwrHK-0">
                    <mxCell style="" parent="0oBJs2MqLXqH3Ror9UuX-0" visible="0"/>
                </object>
                <mxCell id="8oIQF7GS6xDYKXsnwrHK-1" style="edgeStyle=none;html=1;entryX=0;entryY=0.5;entryDx=0;entryDy=0;fontFamily=Verdana;fontSize=8;" parent="8oIQF7GS6xDYKXsnwrHK-0" edge="1">
                    <mxGeometry relative="1" as="geometry">
                        <mxPoint x="370" y="300" as="sourcePoint"/>
                        <mxPoint x="430" y="300" as="targetPoint"/>
                    </mxGeometry>
                </mxCell>
                <mxCell id="8oIQF7GS6xDYKXsnwrHK-3" value="" style="edgeStyle=none;html=1;fontFamily=Verdana;" parent="8oIQF7GS6xDYKXsnwrHK-0" edge="1">
                    <mxGeometry relative="1" as="geometry">
                        <mxPoint x="290" y="300" as="sourcePoint"/>
                        <mxPoint x="350" y="300" as="targetPoint"/>
                    </mxGeometry>
                </mxCell>
                <mxCell id="8oIQF7GS6xDYKXsnwrHK-4" style="edgeStyle=none;html=1;entryX=1;entryY=0.5;entryDx=0;entryDy=0;entryPerimeter=0;fontFamily=Verdana;" parent="8oIQF7GS6xDYKXsnwrHK-0" edge="1">
                    <mxGeometry relative="1" as="geometry">
                        <mxPoint x="520" y="230" as="sourcePoint"/>
                        <mxPoint x="520" y="200" as="targetPoint"/>
                    </mxGeometry>
                </mxCell>
                <mxCell id="8oIQF7GS6xDYKXsnwrHK-6" value="connect client/server at&lt;br&gt;backdoor endpoint" style="text;html=1;align=center;verticalAlign=middle;resizable=0;points=[];autosize=1;strokeColor=none;fillColor=none;fontFamily=Verdana;fontSize=8;" parent="8oIQF7GS6xDYKXsnwrHK-0" vertex="1">
                    <mxGeometry x="300" y="315" width="120" height="30" as="geometry"/>
                </mxCell>
                <mxCell id="8oIQF7GS6xDYKXsnwrHK-7" value="serve http server" style="text;html=1;align=center;verticalAlign=middle;resizable=0;points=[];autosize=1;strokeColor=none;fillColor=none;fontSize=8;fontFamily=Verdana;" parent="8oIQF7GS6xDYKXsnwrHK-0" vertex="1">
                    <mxGeometry x="550" y="180" width="90" height="20" as="geometry"/>
                </mxCell>
                <object label="Http/request" id="8oIQF7GS6xDYKXsnwrHK-13">
                    <mxCell style="locked=1;" parent="0oBJs2MqLXqH3Ror9UuX-0" visible="0"/>
                </object>
                <mxCell id="8oIQF7GS6xDYKXsnwrHK-14" style="edgeStyle=none;html=1;entryX=0;entryY=0.5;entryDx=0;entryDy=0;entryPerimeter=0;fontFamily=Verdana;" parent="8oIQF7GS6xDYKXsnwrHK-13" edge="1">
                    <mxGeometry relative="1" as="geometry"/>
                </mxCell>
                <mxCell id="8oIQF7GS6xDYKXsnwrHK-15" style="edgeStyle=none;html=1;entryX=0.5;entryY=0;entryDx=0;entryDy=0;fontFamily=Verdana;" parent="8oIQF7GS6xDYKXsnwrHK-13" edge="1">
                    <mxGeometry relative="1" as="geometry"/>
                </mxCell>
                <mxCell id="8oIQF7GS6xDYKXsnwrHK-16" style="edgeStyle=none;html=1;entryX=1;entryY=0.5;entryDx=0;entryDy=0;entryPerimeter=0;fontFamily=Verdana;" parent="8oIQF7GS6xDYKXsnwrHK-13" edge="1">
                    <mxGeometry relative="1" as="geometry">
                        <mxPoint x="430" y="300" as="sourcePoint"/>
                    </mxGeometry>
                </mxCell>
                <mxCell id="8oIQF7GS6xDYKXsnwrHK-17" value="" style="edgeStyle=none;html=1;fontFamily=Verdana;" parent="8oIQF7GS6xDYKXsnwrHK-13" edge="1">
                    <mxGeometry relative="1" as="geometry">
                        <mxPoint x="350" y="300" as="sourcePoint"/>
                        <mxPoint x="290" y="300" as="targetPoint"/>
                    </mxGeometry>
                </mxCell>
                <mxCell id="8oIQF7GS6xDYKXsnwrHK-18" value="" style="edgeStyle=none;html=1;fontFamily=Verdana;" parent="8oIQF7GS6xDYKXsnwrHK-13" edge="1">
                    <mxGeometry relative="1" as="geometry">
                        <mxPoint x="200" y="180" as="sourcePoint"/>
                        <mxPoint x="200" y="130" as="targetPoint"/>
                    </mxGeometry>
                </mxCell>
                <mxCell id="8oIQF7GS6xDYKXsnwrHK-19" value="" style="edgeStyle=none;html=1;fontFamily=Verdana;" parent="8oIQF7GS6xDYKXsnwrHK-13" edge="1">
                    <mxGeometry relative="1" as="geometry">
                        <mxPoint x="200" y="230" as="sourcePoint"/>
                        <mxPoint x="200" y="200" as="targetPoint"/>
                    </mxGeometry>
                </mxCell>
                <mxCell id="8oIQF7GS6xDYKXsnwrHK-20" value="copy the package to &lt;br&gt;tcp tunnel for each of conn" style="text;html=1;align=center;verticalAlign=middle;resizable=0;points=[];autosize=1;strokeColor=none;fillColor=none;fontSize=8;fontFamily=Verdana;" parent="8oIQF7GS6xDYKXsnwrHK-13" vertex="1">
                    <mxGeometry x="300" y="340" width="130" height="30" as="geometry"/>
                </mxCell>
                <mxCell id="8oIQF7GS6xDYKXsnwrHK-22" style="edgeStyle=none;html=1;entryX=1;entryY=0.5;entryDx=0;entryDy=0;entryPerimeter=0;" parent="8oIQF7GS6xDYKXsnwrHK-13" source="0oBJs2MqLXqH3Ror9UuX-13" target="0oBJs2MqLXqH3Ror9UuX-6" edge="1">
                    <mxGeometry relative="1" as="geometry"/>
                </mxCell>
                <mxCell id="8oIQF7GS6xDYKXsnwrHK-26" style="edgeStyle=none;html=1;entryX=0;entryY=0.5;entryDx=0;entryDy=0;entryPerimeter=0;" parent="8oIQF7GS6xDYKXsnwrHK-13" source="8oIQF7GS6xDYKXsnwrHK-24" target="0oBJs2MqLXqH3Ror9UuX-7" edge="1">
                    <mxGeometry relative="1" as="geometry"/>
                </mxCell>
                <mxCell id="8oIQF7GS6xDYKXsnwrHK-24" value="" style="ellipse;html=1;shape=startState;fontFamily=Verdana;fillColor=#d5e8d4;strokeColor=#82b366;" parent="8oIQF7GS6xDYKXsnwrHK-13" vertex="1">
                    <mxGeometry x="480" y="100" width="30" height="30" as="geometry"/>
                </mxCell>
                <mxCell id="8oIQF7GS6xDYKXsnwrHK-29" style="edgeStyle=none;html=1;" parent="8oIQF7GS6xDYKXsnwrHK-13" source="8oIQF7GS6xDYKXsnwrHK-25" target="0oBJs2MqLXqH3Ror9UuX-7" edge="1">
                    <mxGeometry relative="1" as="geometry"/>
                </mxCell>
                <mxCell id="8oIQF7GS6xDYKXsnwrHK-25" value="" style="ellipse;html=1;shape=startState;fontFamily=Verdana;fillColor=#d5e8d4;strokeColor=#82b366;" parent="8oIQF7GS6xDYKXsnwrHK-13" vertex="1">
                    <mxGeometry x="530" y="100" width="30" height="30" as="geometry"/>
                </mxCell>
                <mxCell id="8oIQF7GS6xDYKXsnwrHK-28" style="edgeStyle=none;html=1;" parent="8oIQF7GS6xDYKXsnwrHK-13" source="0oBJs2MqLXqH3Ror9UuX-9" edge="1">
                    <mxGeometry relative="1" as="geometry">
                        <mxPoint x="520" y="180" as="targetPoint"/>
                    </mxGeometry>
                </mxCell>
                <mxCell id="8oIQF7GS6xDYKXsnwrHK-31" value="build a mapping of conn/request" style="text;html=1;align=center;verticalAlign=middle;resizable=0;points=[];autosize=1;strokeColor=none;fillColor=none;fontSize=8;fontFamily=Verdana;" parent="8oIQF7GS6xDYKXsnwrHK-13" vertex="1">
                    <mxGeometry x="540" y="205" width="150" height="20" as="geometry"/>
                </mxCell>
                <mxCell id="8oIQF7GS6xDYKXsnwrHK-32" value="build a mapping of conn/request" style="text;html=1;align=center;verticalAlign=middle;resizable=0;points=[];autosize=1;strokeColor=none;fillColor=none;fontSize=8;fontFamily=Verdana;" parent="8oIQF7GS6xDYKXsnwrHK-13" vertex="1">
                    <mxGeometry x="30" y="205" width="150" height="20" as="geometry"/>
                </mxCell>
                <mxCell id="8oIQF7GS6xDYKXsnwrHK-34" value="" style="shape=providedRequiredInterface;html=1;verticalLabelPosition=bottom;sketch=0;fontFamily=Verdana;rotation=-90;fillColor=#e1d5e7;strokeColor=#9673a6;" parent="8oIQF7GS6xDYKXsnwrHK-13" vertex="1">
                    <mxGeometry x="210" y="180" width="20" height="20" as="geometry"/>
                </mxCell>
                <mxCell id="8oIQF7GS6xDYKXsnwrHK-35" value="" style="shape=providedRequiredInterface;html=1;verticalLabelPosition=bottom;sketch=0;fontFamily=Verdana;rotation=-90;fillColor=#e1d5e7;strokeColor=#9673a6;" parent="8oIQF7GS6xDYKXsnwrHK-13" vertex="1">
                    <mxGeometry x="170" y="180" width="20" height="20" as="geometry"/>
                </mxCell>
                <mxCell id="8oIQF7GS6xDYKXsnwrHK-37" style="edgeStyle=none;html=1;entryX=0;entryY=0.5;entryDx=0;entryDy=0;entryPerimeter=0;" parent="8oIQF7GS6xDYKXsnwrHK-13" source="0oBJs2MqLXqH3Ror9UuX-11" target="8oIQF7GS6xDYKXsnwrHK-35" edge="1">
                    <mxGeometry relative="1" as="geometry"/>
                </mxCell>
                <mxCell id="8oIQF7GS6xDYKXsnwrHK-38" style="edgeStyle=none;html=1;entryX=0;entryY=0.5;entryDx=0;entryDy=0;entryPerimeter=0;" parent="8oIQF7GS6xDYKXsnwrHK-13" source="0oBJs2MqLXqH3Ror9UuX-11" target="8oIQF7GS6xDYKXsnwrHK-34" edge="1">
                    <mxGeometry relative="1" as="geometry"/>
                </mxCell>
            </root>
        </mxGraphModel>
    </diagram>
    <diagram name="3-transit-router" id="koR_sH1TckO3BtrwXP3O">
        <mxGraphModel dx="970" dy="758" grid="1" gridSize="10" guides="1" tooltips="1" connect="1" arrows="1" fold="1" page="1" pageScale="1" pageWidth="1169" pageHeight="827" math="0" shadow="0">
            <root>
                <mxCell id="T9ikg00Gk9EtKJGUvpTq-0"/>
                <mxCell id="T9ikg00Gk9EtKJGUvpTq-1" style="" parent="T9ikg00Gk9EtKJGUvpTq-0"/>
                <mxCell id="T9ikg00Gk9EtKJGUvpTq-2" value="«Router»&lt;br&gt;&lt;b&gt;Internal&lt;/b&gt;" style="html=1;dropTarget=0;hachureGap=4;fontFamily=Verdana;fontSize=20;" parent="T9ikg00Gk9EtKJGUvpTq-1" vertex="1">
                    <mxGeometry x="120" y="240" width="160" height="120" as="geometry"/>
                </mxCell>
                <mxCell id="T9ikg00Gk9EtKJGUvpTq-3" value="" style="shape=module;jettyWidth=8;jettyHeight=4;hachureGap=4;fontFamily=Architects Daughter;fontSource=https%3A%2F%2Ffonts.googleapis.com%2Fcss%3Ffamily%3DArchitects%2BDaughter;fontSize=20;" parent="T9ikg00Gk9EtKJGUvpTq-2" vertex="1">
                    <mxGeometry x="1" width="20" height="20" relative="1" as="geometry">
                        <mxPoint x="-27" y="7" as="offset"/>
                    </mxGeometry>
                </mxCell>
                <mxCell id="T9ikg00Gk9EtKJGUvpTq-4" value="«Router»&lt;br&gt;&lt;b&gt;External&lt;/b&gt;" style="html=1;dropTarget=0;hachureGap=4;fontFamily=Verdana;fontSize=20;" parent="T9ikg00Gk9EtKJGUvpTq-1" vertex="1">
                    <mxGeometry x="440" y="240" width="160" height="120" as="geometry"/>
                </mxCell>
                <mxCell id="T9ikg00Gk9EtKJGUvpTq-5" value="" style="shape=module;jettyWidth=8;jettyHeight=4;hachureGap=4;fontFamily=Architects Daughter;fontSource=https%3A%2F%2Ffonts.googleapis.com%2Fcss%3Ffamily%3DArchitects%2BDaughter;fontSize=20;" parent="T9ikg00Gk9EtKJGUvpTq-4" vertex="1">
                    <mxGeometry x="1" width="20" height="20" relative="1" as="geometry">
                        <mxPoint x="-27" y="7" as="offset"/>
                    </mxGeometry>
                </mxCell>
                <mxCell id="GEPTad5kEVz036lfN6qt-14" value="" style="edgeStyle=none;html=1;entryX=0;entryY=0.5;entryDx=0;entryDy=0;startArrow=classic;startFill=1;" parent="T9ikg00Gk9EtKJGUvpTq-1" source="T9ikg00Gk9EtKJGUvpTq-6" target="T9ikg00Gk9EtKJGUvpTq-14" edge="1">
                    <mxGeometry relative="1" as="geometry"/>
                </mxCell>
                <mxCell id="T9ikg00Gk9EtKJGUvpTq-6" value="" style="shape=providedRequiredInterface;html=1;verticalLabelPosition=bottom;sketch=0;fontFamily=Verdana;fillColor=#f8cecc;strokeColor=#b85450;" parent="T9ikg00Gk9EtKJGUvpTq-1" vertex="1">
                    <mxGeometry x="350" y="290" width="20" height="20" as="geometry"/>
                </mxCell>
                <mxCell id="GEPTad5kEVz036lfN6qt-17" value="" style="edgeStyle=none;html=1;fontSize=7;fontColor=#F00000;" parent="T9ikg00Gk9EtKJGUvpTq-1" source="T9ikg00Gk9EtKJGUvpTq-8" target="T9ikg00Gk9EtKJGUvpTq-15" edge="1">
                    <mxGeometry relative="1" as="geometry"/>
                </mxCell>
                <mxCell id="T9ikg00Gk9EtKJGUvpTq-8" value="" style="shape=providedRequiredInterface;html=1;verticalLabelPosition=bottom;sketch=0;fontFamily=Verdana;rotation=90;fillColor=#d5e8d4;strokeColor=#82b366;" parent="T9ikg00Gk9EtKJGUvpTq-1" vertex="1">
                    <mxGeometry x="510" y="180" width="20" height="20" as="geometry"/>
                </mxCell>
                <mxCell id="T9ikg00Gk9EtKJGUvpTq-9" value="" style="ellipse;html=1;shape=endState;fillColor=#e1d5e7;strokeColor=#9673a6;fontFamily=Verdana;" parent="T9ikg00Gk9EtKJGUvpTq-1" vertex="1">
                    <mxGeometry x="185" y="120" width="30" height="30" as="geometry"/>
                </mxCell>
                <mxCell id="GEPTad5kEVz036lfN6qt-16" value="" style="edgeStyle=none;html=1;fontSize=7;fontColor=#F00000;" parent="T9ikg00Gk9EtKJGUvpTq-1" source="T9ikg00Gk9EtKJGUvpTq-10" target="T9ikg00Gk9EtKJGUvpTq-8" edge="1">
                    <mxGeometry relative="1" as="geometry"/>
                </mxCell>
                <mxCell id="T9ikg00Gk9EtKJGUvpTq-10" value="" style="ellipse;html=1;shape=startState;fontFamily=Verdana;fillColor=#d5e8d4;strokeColor=#82b366;" parent="T9ikg00Gk9EtKJGUvpTq-1" vertex="1">
                    <mxGeometry x="505" y="120" width="30" height="30" as="geometry"/>
                </mxCell>
                <mxCell id="GEPTad5kEVz036lfN6qt-23" value="" style="edgeStyle=none;html=1;fontSize=7;fontColor=#F00000;startArrow=none;startFill=0;entryX=0.5;entryY=1;entryDx=0;entryDy=0;" parent="T9ikg00Gk9EtKJGUvpTq-1" source="T9ikg00Gk9EtKJGUvpTq-11" target="T9ikg00Gk9EtKJGUvpTq-9" edge="1">
                    <mxGeometry relative="1" as="geometry"/>
                </mxCell>
                <mxCell id="T9ikg00Gk9EtKJGUvpTq-11" value="" style="shape=providedRequiredInterface;html=1;verticalLabelPosition=bottom;sketch=0;fontFamily=Verdana;rotation=-90;fillColor=#e1d5e7;strokeColor=#9673a6;" parent="T9ikg00Gk9EtKJGUvpTq-1" vertex="1">
                    <mxGeometry x="190" y="180" width="20" height="20" as="geometry"/>
                </mxCell>
                <mxCell id="GEPTad5kEVz036lfN6qt-22" value="" style="edgeStyle=none;html=1;fontSize=7;fontColor=#F00000;startArrow=none;startFill=0;entryX=0;entryY=0.5;entryDx=0;entryDy=0;entryPerimeter=0;" parent="T9ikg00Gk9EtKJGUvpTq-1" source="T9ikg00Gk9EtKJGUvpTq-12" target="T9ikg00Gk9EtKJGUvpTq-11" edge="1">
                    <mxGeometry relative="1" as="geometry"/>
                </mxCell>
                <mxCell id="T9ikg00Gk9EtKJGUvpTq-12" value="" style="whiteSpace=wrap;html=1;aspect=fixed;fontFamily=Verdana;fillColor=#e1d5e7;strokeColor=#9673a6;" parent="T9ikg00Gk9EtKJGUvpTq-1" vertex="1">
                    <mxGeometry x="190" y="230" width="20" height="20" as="geometry"/>
                </mxCell>
                <mxCell id="GEPTad5kEVz036lfN6qt-13" value="" style="edgeStyle=none;html=1;entryX=0;entryY=0.5;entryDx=0;entryDy=0;entryPerimeter=0;startArrow=classic;startFill=1;" parent="T9ikg00Gk9EtKJGUvpTq-1" source="T9ikg00Gk9EtKJGUvpTq-13" target="T9ikg00Gk9EtKJGUvpTq-6" edge="1">
                    <mxGeometry relative="1" as="geometry"/>
                </mxCell>
                <mxCell id="T9ikg00Gk9EtKJGUvpTq-13" value="" style="whiteSpace=wrap;html=1;aspect=fixed;fontFamily=Verdana;fillColor=#f8cecc;strokeColor=#b85450;" parent="T9ikg00Gk9EtKJGUvpTq-1" vertex="1">
                    <mxGeometry x="270" y="290" width="20" height="20" as="geometry"/>
                </mxCell>
                <mxCell id="T9ikg00Gk9EtKJGUvpTq-14" value="" style="whiteSpace=wrap;html=1;aspect=fixed;fontFamily=Verdana;fillColor=#f8cecc;strokeColor=#b85450;" parent="T9ikg00Gk9EtKJGUvpTq-1" vertex="1">
                    <mxGeometry x="430" y="290" width="20" height="20" as="geometry"/>
                </mxCell>
                <mxCell id="T9ikg00Gk9EtKJGUvpTq-15" value="" style="whiteSpace=wrap;html=1;aspect=fixed;fontFamily=Verdana;fillColor=#d5e8d4;strokeColor=#82b366;" parent="T9ikg00Gk9EtKJGUvpTq-1" vertex="1">
                    <mxGeometry x="510" y="230" width="20" height="20" as="geometry"/>
                </mxCell>
                <mxCell id="T9ikg00Gk9EtKJGUvpTq-16" value="" style="shape=providedRequiredInterface;html=1;verticalLabelPosition=bottom;sketch=0;fontFamily=Verdana;rotation=0;" parent="T9ikg00Gk9EtKJGUvpTq-1" vertex="1">
                    <mxGeometry x="340" y="40" width="20" height="20" as="geometry"/>
                </mxCell>
                <mxCell id="T9ikg00Gk9EtKJGUvpTq-17" value="listen" style="text;html=1;align=center;verticalAlign=middle;resizable=0;points=[];autosize=1;strokeColor=none;fillColor=none;fontFamily=Verdana;" parent="T9ikg00Gk9EtKJGUvpTq-1" vertex="1">
                    <mxGeometry x="360" y="35" width="60" height="30" as="geometry"/>
                </mxCell>
                <mxCell id="T9ikg00Gk9EtKJGUvpTq-18" value="dial" style="text;html=1;align=center;verticalAlign=middle;resizable=0;points=[];autosize=1;strokeColor=none;fillColor=none;fontFamily=Verdana;" parent="T9ikg00Gk9EtKJGUvpTq-1" vertex="1">
                    <mxGeometry x="300" y="35" width="40" height="30" as="geometry"/>
                </mxCell>
                <mxCell id="T9ikg00Gk9EtKJGUvpTq-19" value="tunnel client" style="text;html=1;align=center;verticalAlign=middle;resizable=0;points=[];autosize=1;strokeColor=none;fillColor=none;fontSize=8;fontFamily=Verdana;" parent="T9ikg00Gk9EtKJGUvpTq-1" vertex="1">
                    <mxGeometry x="280" y="310" width="70" height="20" as="geometry"/>
                </mxCell>
                <mxCell id="T9ikg00Gk9EtKJGUvpTq-20" value="application" style="text;html=1;align=center;verticalAlign=middle;resizable=0;points=[];autosize=1;strokeColor=none;fillColor=none;fontSize=8;fontFamily=Verdana;" parent="T9ikg00Gk9EtKJGUvpTq-1" vertex="1">
                    <mxGeometry x="100" y="105" width="70" height="20" as="geometry"/>
                </mxCell>
                <mxCell id="T9ikg00Gk9EtKJGUvpTq-21" value="client" style="text;html=1;align=center;verticalAlign=middle;resizable=0;points=[];autosize=1;strokeColor=none;fillColor=none;fontSize=8;fontFamily=Verdana;" parent="T9ikg00Gk9EtKJGUvpTq-1" vertex="1">
                    <mxGeometry x="530" y="125" width="50" height="20" as="geometry"/>
                </mxCell>
                <mxCell id="GEPTad5kEVz036lfN6qt-0" value="interceptor" style="text;html=1;align=center;verticalAlign=middle;resizable=0;points=[];autosize=1;strokeColor=none;fillColor=none;fontSize=8;fontFamily=Verdana;" parent="T9ikg00Gk9EtKJGUvpTq-1" vertex="1">
                    <mxGeometry x="530" y="220" width="70" height="20" as="geometry"/>
                </mxCell>
                <mxCell id="GEPTad5kEVz036lfN6qt-1" value="interceptor" style="text;html=1;align=center;verticalAlign=middle;resizable=0;points=[];autosize=1;strokeColor=none;fillColor=none;fontSize=8;fontFamily=Verdana;" parent="T9ikg00Gk9EtKJGUvpTq-1" vertex="1">
                    <mxGeometry x="125" y="360" width="70" height="20" as="geometry"/>
                </mxCell>
                <mxCell id="GEPTad5kEVz036lfN6qt-2" value="" style="whiteSpace=wrap;html=1;aspect=fixed;fontFamily=Verdana;fillColor=#d5e8d4;strokeColor=#82b366;" parent="T9ikg00Gk9EtKJGUvpTq-1" vertex="1">
                    <mxGeometry x="190" y="350" width="20" height="20" as="geometry"/>
                </mxCell>
                <mxCell id="GEPTad5kEVz036lfN6qt-20" value="" style="edgeStyle=none;html=1;fontSize=7;fontColor=#F00000;" parent="T9ikg00Gk9EtKJGUvpTq-1" source="GEPTad5kEVz036lfN6qt-4" target="GEPTad5kEVz036lfN6qt-8" edge="1">
                    <mxGeometry relative="1" as="geometry"/>
                </mxCell>
                <mxCell id="GEPTad5kEVz036lfN6qt-4" value="" style="whiteSpace=wrap;html=1;aspect=fixed;fontFamily=Verdana;fillColor=#e1d5e7;strokeColor=#9673a6;" parent="T9ikg00Gk9EtKJGUvpTq-1" vertex="1">
                    <mxGeometry x="510" y="350" width="20" height="20" as="geometry"/>
                </mxCell>
                <mxCell id="GEPTad5kEVz036lfN6qt-5" value="forwarder" style="text;html=1;align=center;verticalAlign=middle;resizable=0;points=[];autosize=1;strokeColor=none;fillColor=none;fontSize=8;fontFamily=Verdana;" parent="T9ikg00Gk9EtKJGUvpTq-1" vertex="1">
                    <mxGeometry x="130" y="220" width="60" height="20" as="geometry"/>
                </mxCell>
                <mxCell id="GEPTad5kEVz036lfN6qt-6" value="forwarder" style="text;html=1;align=center;verticalAlign=middle;resizable=0;points=[];autosize=1;strokeColor=none;fillColor=none;fontSize=8;fontFamily=Verdana;" parent="T9ikg00Gk9EtKJGUvpTq-1" vertex="1">
                    <mxGeometry x="530" y="360" width="60" height="20" as="geometry"/>
                </mxCell>
                <mxCell id="GEPTad5kEVz036lfN6qt-7" value="" style="ellipse;html=1;shape=endState;fillColor=#e1d5e7;strokeColor=#9673a6;fontFamily=Verdana;" parent="T9ikg00Gk9EtKJGUvpTq-1" vertex="1">
                    <mxGeometry x="505" y="450" width="30" height="30" as="geometry"/>
                </mxCell>
                <mxCell id="GEPTad5kEVz036lfN6qt-21" value="" style="edgeStyle=none;html=1;fontSize=7;fontColor=#F00000;" parent="T9ikg00Gk9EtKJGUvpTq-1" source="GEPTad5kEVz036lfN6qt-8" target="GEPTad5kEVz036lfN6qt-7" edge="1">
                    <mxGeometry relative="1" as="geometry"/>
                </mxCell>
                <mxCell id="GEPTad5kEVz036lfN6qt-8" value="" style="shape=providedRequiredInterface;html=1;verticalLabelPosition=bottom;sketch=0;fontFamily=Verdana;rotation=90;fillColor=#e1d5e7;strokeColor=#9673a6;" parent="T9ikg00Gk9EtKJGUvpTq-1" vertex="1">
                    <mxGeometry x="510" y="404" width="20" height="20" as="geometry"/>
                </mxCell>
                <mxCell id="GEPTad5kEVz036lfN6qt-27" value="" style="edgeStyle=none;html=1;fontSize=7;fontColor=#F00000;startArrow=none;startFill=0;" parent="T9ikg00Gk9EtKJGUvpTq-1" source="GEPTad5kEVz036lfN6qt-9" target="GEPTad5kEVz036lfN6qt-2" edge="1">
                    <mxGeometry relative="1" as="geometry"/>
                </mxCell>
                <mxCell id="GEPTad5kEVz036lfN6qt-9" value="" style="shape=providedRequiredInterface;html=1;verticalLabelPosition=bottom;sketch=0;fontFamily=Verdana;rotation=-90;fillColor=#d5e8d4;strokeColor=#82b366;" parent="T9ikg00Gk9EtKJGUvpTq-1" vertex="1">
                    <mxGeometry x="190" y="400" width="20" height="20" as="geometry"/>
                </mxCell>
                <mxCell id="GEPTad5kEVz036lfN6qt-25" value="" style="edgeStyle=none;html=1;fontSize=7;fontColor=#F00000;startArrow=none;startFill=0;" parent="T9ikg00Gk9EtKJGUvpTq-1" source="GEPTad5kEVz036lfN6qt-10" target="GEPTad5kEVz036lfN6qt-9" edge="1">
                    <mxGeometry relative="1" as="geometry"/>
                </mxCell>
                <mxCell id="GEPTad5kEVz036lfN6qt-10" value="" style="ellipse;html=1;shape=startState;fontFamily=Verdana;fillColor=#d5e8d4;strokeColor=#82b366;" parent="T9ikg00Gk9EtKJGUvpTq-1" vertex="1">
                    <mxGeometry x="185" y="450" width="30" height="30" as="geometry"/>
                </mxCell>
                <mxCell id="GEPTad5kEVz036lfN6qt-11" value="client" style="text;html=1;align=center;verticalAlign=middle;resizable=0;points=[];autosize=1;strokeColor=none;fillColor=none;fontSize=8;fontFamily=Verdana;" parent="T9ikg00Gk9EtKJGUvpTq-1" vertex="1">
                    <mxGeometry x="140" y="455" width="50" height="20" as="geometry"/>
                </mxCell>
                <mxCell id="GEPTad5kEVz036lfN6qt-12" value="tunnel server" style="text;html=1;align=center;verticalAlign=middle;resizable=0;points=[];autosize=1;strokeColor=none;fillColor=none;fontSize=8;fontFamily=Verdana;" parent="T9ikg00Gk9EtKJGUvpTq-1" vertex="1">
                    <mxGeometry x="360" y="270" width="80" height="20" as="geometry"/>
                </mxCell>
                <mxCell id="GEPTad5kEVz036lfN6qt-15" value="build http2 connection,&lt;br style=&quot;font-size: 7px;&quot;&gt;single tcp and stream the requests" style="text;html=1;align=center;verticalAlign=middle;resizable=0;points=[];autosize=1;strokeColor=none;fillColor=none;fontSize=7;fontStyle=1;fontColor=#F00000;" parent="T9ikg00Gk9EtKJGUvpTq-1" vertex="1">
                    <mxGeometry x="290" y="330" width="140" height="30" as="geometry"/>
                </mxCell>
                <mxCell id="GEPTad5kEVz036lfN6qt-18" value="&amp;lt;port-forward&amp;gt;&lt;br&gt;accept external request, &lt;br&gt;wrap as http request (tcp/http/https),&lt;br&gt;send to internal via tunnel" style="text;html=1;align=center;verticalAlign=middle;resizable=0;points=[];autosize=1;strokeColor=none;fillColor=none;fontSize=7;fontStyle=1;fontColor=#F00000;" parent="T9ikg00Gk9EtKJGUvpTq-1" vertex="1">
                    <mxGeometry x="535" y="165" width="150" height="50" as="geometry"/>
                </mxCell>
                <mxCell id="GEPTad5kEVz036lfN6qt-19" value="&amp;lt;port-forward&amp;gt;&lt;br&gt;handle the tunnel out traffic,&lt;br&gt;forward it to the right application," style="text;html=1;align=center;verticalAlign=middle;resizable=0;points=[];autosize=1;strokeColor=none;fillColor=none;fontSize=7;fontStyle=1;fontColor=#F00000;" parent="T9ikg00Gk9EtKJGUvpTq-1" vertex="1">
                    <mxGeometry x="45" y="165" width="130" height="40" as="geometry"/>
                </mxCell>
                <mxCell id="GEPTad5kEVz036lfN6qt-24" value="&amp;lt;proxy/vpn&amp;gt;&lt;br&gt;proxy the internal traffic&amp;nbsp;&lt;br&gt;to the external spaces&amp;nbsp;" style="text;html=1;align=center;verticalAlign=middle;resizable=0;points=[];autosize=1;strokeColor=none;fillColor=none;fontSize=7;fontStyle=1;fontColor=#F00000;" parent="T9ikg00Gk9EtKJGUvpTq-1" vertex="1">
                    <mxGeometry x="45" y="400" width="110" height="40" as="geometry"/>
                </mxCell>
                <mxCell id="GEPTad5kEVz036lfN6qt-28" value="&amp;lt;proxy/vpn&amp;gt;&lt;br&gt;forward the traffic &lt;br&gt;to the target applications" style="text;html=1;align=center;verticalAlign=middle;resizable=0;points=[];autosize=1;strokeColor=none;fillColor=none;fontSize=7;fontStyle=1;fontColor=#F00000;" parent="T9ikg00Gk9EtKJGUvpTq-1" vertex="1">
                    <mxGeometry x="550" y="400" width="110" height="40" as="geometry"/>
                </mxCell>
                <object label="TCP/init" id="T9ikg00Gk9EtKJGUvpTq-23">
                    <mxCell style="" parent="T9ikg00Gk9EtKJGUvpTq-0" visible="0"/>
                </object>
                <mxCell id="T9ikg00Gk9EtKJGUvpTq-24" style="edgeStyle=none;html=1;entryX=0;entryY=0.5;entryDx=0;entryDy=0;fontFamily=Verdana;fontSize=8;" parent="T9ikg00Gk9EtKJGUvpTq-23" edge="1">
                    <mxGeometry relative="1" as="geometry">
                        <mxPoint x="370" y="300" as="sourcePoint"/>
                        <mxPoint x="430" y="300" as="targetPoint"/>
                    </mxGeometry>
                </mxCell>
                <mxCell id="T9ikg00Gk9EtKJGUvpTq-25" value="" style="edgeStyle=none;html=1;fontFamily=Verdana;" parent="T9ikg00Gk9EtKJGUvpTq-23" edge="1">
                    <mxGeometry relative="1" as="geometry">
                        <mxPoint x="200" y="230" as="sourcePoint"/>
                        <mxPoint x="200" y="200" as="targetPoint"/>
                    </mxGeometry>
                </mxCell>
                <mxCell id="T9ikg00Gk9EtKJGUvpTq-26" value="" style="edgeStyle=none;html=1;fontFamily=Verdana;" parent="T9ikg00Gk9EtKJGUvpTq-23" edge="1">
                    <mxGeometry relative="1" as="geometry">
                        <mxPoint x="290" y="300" as="sourcePoint"/>
                        <mxPoint x="350" y="300" as="targetPoint"/>
                    </mxGeometry>
                </mxCell>
                <mxCell id="T9ikg00Gk9EtKJGUvpTq-27" style="edgeStyle=none;html=1;entryX=1;entryY=0.5;entryDx=0;entryDy=0;entryPerimeter=0;fontFamily=Verdana;" parent="T9ikg00Gk9EtKJGUvpTq-23" edge="1">
                    <mxGeometry relative="1" as="geometry">
                        <mxPoint x="520" y="230" as="sourcePoint"/>
                        <mxPoint x="520" y="200" as="targetPoint"/>
                    </mxGeometry>
                </mxCell>
                <mxCell id="T9ikg00Gk9EtKJGUvpTq-28" value="connect to the application" style="text;html=1;align=center;verticalAlign=middle;resizable=0;points=[];autosize=1;strokeColor=none;fillColor=none;fontFamily=Verdana;fontSize=8;" parent="T9ikg00Gk9EtKJGUvpTq-23" vertex="1">
                    <mxGeometry x="55" y="180" width="130" height="20" as="geometry"/>
                </mxCell>
                <mxCell id="T9ikg00Gk9EtKJGUvpTq-29" value="connect server to build the tunnel" style="text;html=1;align=center;verticalAlign=middle;resizable=0;points=[];autosize=1;strokeColor=none;fillColor=none;fontFamily=Verdana;fontSize=8;" parent="T9ikg00Gk9EtKJGUvpTq-23" vertex="1">
                    <mxGeometry x="280" y="320" width="160" height="20" as="geometry"/>
                </mxCell>
                <mxCell id="T9ikg00Gk9EtKJGUvpTq-30" value="listen to the port" style="text;html=1;align=center;verticalAlign=middle;resizable=0;points=[];autosize=1;strokeColor=none;fillColor=none;fontSize=8;fontFamily=Verdana;" parent="T9ikg00Gk9EtKJGUvpTq-23" vertex="1">
                    <mxGeometry x="540" y="180" width="90" height="20" as="geometry"/>
                </mxCell>
                <object label="TCP/request" id="T9ikg00Gk9EtKJGUvpTq-31">
                    <mxCell style="" parent="T9ikg00Gk9EtKJGUvpTq-0" visible="0"/>
                </object>
                <mxCell id="T9ikg00Gk9EtKJGUvpTq-32" style="edgeStyle=none;html=1;entryX=0;entryY=0.5;entryDx=0;entryDy=0;entryPerimeter=0;fontFamily=Verdana;" parent="T9ikg00Gk9EtKJGUvpTq-31" source="T9ikg00Gk9EtKJGUvpTq-10" target="T9ikg00Gk9EtKJGUvpTq-8" edge="1">
                    <mxGeometry relative="1" as="geometry"/>
                </mxCell>
                <mxCell id="T9ikg00Gk9EtKJGUvpTq-33" style="edgeStyle=none;html=1;entryX=0.5;entryY=0;entryDx=0;entryDy=0;fontFamily=Verdana;" parent="T9ikg00Gk9EtKJGUvpTq-31" source="T9ikg00Gk9EtKJGUvpTq-8" target="T9ikg00Gk9EtKJGUvpTq-15" edge="1">
                    <mxGeometry relative="1" as="geometry"/>
                </mxCell>
                <mxCell id="T9ikg00Gk9EtKJGUvpTq-34" style="edgeStyle=none;html=1;entryX=1;entryY=0.5;entryDx=0;entryDy=0;entryPerimeter=0;fontFamily=Verdana;" parent="T9ikg00Gk9EtKJGUvpTq-31" target="T9ikg00Gk9EtKJGUvpTq-6" edge="1">
                    <mxGeometry relative="1" as="geometry">
                        <mxPoint x="430" y="300" as="sourcePoint"/>
                    </mxGeometry>
                </mxCell>
                <mxCell id="T9ikg00Gk9EtKJGUvpTq-35" value="" style="edgeStyle=none;html=1;fontFamily=Verdana;" parent="T9ikg00Gk9EtKJGUvpTq-31" edge="1">
                    <mxGeometry relative="1" as="geometry">
                        <mxPoint x="350" y="300" as="sourcePoint"/>
                        <mxPoint x="290" y="300" as="targetPoint"/>
                    </mxGeometry>
                </mxCell>
                <mxCell id="T9ikg00Gk9EtKJGUvpTq-36" value="" style="edgeStyle=none;html=1;fontFamily=Verdana;" parent="T9ikg00Gk9EtKJGUvpTq-31" edge="1">
                    <mxGeometry relative="1" as="geometry">
                        <mxPoint x="200" y="180" as="sourcePoint"/>
                        <mxPoint x="200" y="130" as="targetPoint"/>
                    </mxGeometry>
                </mxCell>
                <mxCell id="T9ikg00Gk9EtKJGUvpTq-37" value="" style="edgeStyle=none;html=1;fontFamily=Verdana;" parent="T9ikg00Gk9EtKJGUvpTq-31" edge="1">
                    <mxGeometry relative="1" as="geometry">
                        <mxPoint x="200" y="230" as="sourcePoint"/>
                        <mxPoint x="200" y="200" as="targetPoint"/>
                    </mxGeometry>
                </mxCell>
                <mxCell id="T9ikg00Gk9EtKJGUvpTq-38" value="copy the package" style="text;html=1;align=center;verticalAlign=middle;resizable=0;points=[];autosize=1;strokeColor=none;fillColor=none;fontSize=8;fontFamily=Verdana;" parent="T9ikg00Gk9EtKJGUvpTq-31" vertex="1">
                    <mxGeometry x="320" y="320" width="90" height="20" as="geometry"/>
                </mxCell>
                <object label="TCP/response" id="T9ikg00Gk9EtKJGUvpTq-39">
                    <mxCell style="" parent="T9ikg00Gk9EtKJGUvpTq-0" visible="0"/>
                </object>
                <mxCell id="T9ikg00Gk9EtKJGUvpTq-40" style="edgeStyle=none;html=1;entryX=0;entryY=0.5;entryDx=0;entryDy=0;entryPerimeter=0;fontFamily=Verdana;endArrow=none;endFill=0;startArrow=classic;startFill=1;" parent="T9ikg00Gk9EtKJGUvpTq-39" edge="1">
                    <mxGeometry relative="1" as="geometry">
                        <mxPoint x="521" y="130" as="sourcePoint"/>
                        <mxPoint x="521" y="180" as="targetPoint"/>
                        <Array as="points">
                            <mxPoint x="521" y="150"/>
                        </Array>
                    </mxGeometry>
                </mxCell>
                <mxCell id="T9ikg00Gk9EtKJGUvpTq-41" style="edgeStyle=none;html=1;entryX=0.5;entryY=0;entryDx=0;entryDy=0;fontFamily=Verdana;endArrow=none;endFill=0;startArrow=classic;startFill=1;" parent="T9ikg00Gk9EtKJGUvpTq-39" edge="1">
                    <mxGeometry relative="1" as="geometry">
                        <mxPoint x="521" y="200" as="sourcePoint"/>
                        <mxPoint x="521" y="230" as="targetPoint"/>
                    </mxGeometry>
                </mxCell>
                <mxCell id="T9ikg00Gk9EtKJGUvpTq-42" style="edgeStyle=none;html=1;entryX=1;entryY=0.5;entryDx=0;entryDy=0;entryPerimeter=0;fontFamily=Verdana;endArrow=none;endFill=0;startArrow=classic;startFill=1;" parent="T9ikg00Gk9EtKJGUvpTq-39" edge="1">
                    <mxGeometry relative="1" as="geometry">
                        <mxPoint x="431" y="300" as="sourcePoint"/>
                        <mxPoint x="371" y="300" as="targetPoint"/>
                    </mxGeometry>
                </mxCell>
                <mxCell id="T9ikg00Gk9EtKJGUvpTq-43" value="" style="edgeStyle=none;html=1;fontFamily=Verdana;endArrow=none;endFill=0;startArrow=classic;startFill=1;" parent="T9ikg00Gk9EtKJGUvpTq-39" edge="1">
                    <mxGeometry relative="1" as="geometry">
                        <mxPoint x="351" y="300" as="sourcePoint"/>
                        <mxPoint x="291" y="300" as="targetPoint"/>
                    </mxGeometry>
                </mxCell>
                <mxCell id="T9ikg00Gk9EtKJGUvpTq-44" value="" style="edgeStyle=none;html=1;fontFamily=Verdana;endArrow=none;endFill=0;startArrow=classic;startFill=1;" parent="T9ikg00Gk9EtKJGUvpTq-39" edge="1">
                    <mxGeometry relative="1" as="geometry">
                        <mxPoint x="201" y="180" as="sourcePoint"/>
                        <mxPoint x="201" y="130" as="targetPoint"/>
                    </mxGeometry>
                </mxCell>
                <mxCell id="T9ikg00Gk9EtKJGUvpTq-45" value="" style="edgeStyle=none;html=1;fontFamily=Verdana;endArrow=none;endFill=0;startArrow=classic;startFill=1;" parent="T9ikg00Gk9EtKJGUvpTq-39" edge="1">
                    <mxGeometry relative="1" as="geometry">
                        <mxPoint x="201" y="230" as="sourcePoint"/>
                        <mxPoint x="201" y="200" as="targetPoint"/>
                    </mxGeometry>
                </mxCell>
                <object label="HTTP/init" id="T9ikg00Gk9EtKJGUvpTq-46">
                    <mxCell style="" parent="T9ikg00Gk9EtKJGUvpTq-0" visible="0"/>
                </object>
                <mxCell id="T9ikg00Gk9EtKJGUvpTq-47" style="edgeStyle=none;html=1;entryX=0;entryY=0.5;entryDx=0;entryDy=0;fontFamily=Verdana;fontSize=8;" parent="T9ikg00Gk9EtKJGUvpTq-46" edge="1">
                    <mxGeometry relative="1" as="geometry">
                        <mxPoint x="370" y="300" as="sourcePoint"/>
                        <mxPoint x="430" y="300" as="targetPoint"/>
                    </mxGeometry>
                </mxCell>
                <mxCell id="T9ikg00Gk9EtKJGUvpTq-48" value="" style="edgeStyle=none;html=1;fontFamily=Verdana;" parent="T9ikg00Gk9EtKJGUvpTq-46" edge="1">
                    <mxGeometry relative="1" as="geometry">
                        <mxPoint x="290" y="300" as="sourcePoint"/>
                        <mxPoint x="350" y="300" as="targetPoint"/>
                    </mxGeometry>
                </mxCell>
                <mxCell id="T9ikg00Gk9EtKJGUvpTq-49" style="edgeStyle=none;html=1;entryX=1;entryY=0.5;entryDx=0;entryDy=0;entryPerimeter=0;fontFamily=Verdana;" parent="T9ikg00Gk9EtKJGUvpTq-46" edge="1">
                    <mxGeometry relative="1" as="geometry">
                        <mxPoint x="520" y="230" as="sourcePoint"/>
                        <mxPoint x="520" y="200" as="targetPoint"/>
                    </mxGeometry>
                </mxCell>
                <mxCell id="T9ikg00Gk9EtKJGUvpTq-50" value="connect client/server at&lt;br&gt;backdoor endpoint" style="text;html=1;align=center;verticalAlign=middle;resizable=0;points=[];autosize=1;strokeColor=none;fillColor=none;fontFamily=Verdana;fontSize=8;" parent="T9ikg00Gk9EtKJGUvpTq-46" vertex="1">
                    <mxGeometry x="300" y="315" width="120" height="30" as="geometry"/>
                </mxCell>
                <mxCell id="T9ikg00Gk9EtKJGUvpTq-51" value="serve http server" style="text;html=1;align=center;verticalAlign=middle;resizable=0;points=[];autosize=1;strokeColor=none;fillColor=none;fontSize=8;fontFamily=Verdana;" parent="T9ikg00Gk9EtKJGUvpTq-46" vertex="1">
                    <mxGeometry x="550" y="180" width="90" height="20" as="geometry"/>
                </mxCell>
                <object label="Http/request" id="T9ikg00Gk9EtKJGUvpTq-52">
                    <mxCell style="locked=1;" parent="T9ikg00Gk9EtKJGUvpTq-0" visible="0"/>
                </object>
                <mxCell id="T9ikg00Gk9EtKJGUvpTq-53" style="edgeStyle=none;html=1;entryX=0;entryY=0.5;entryDx=0;entryDy=0;entryPerimeter=0;fontFamily=Verdana;" parent="T9ikg00Gk9EtKJGUvpTq-52" edge="1">
                    <mxGeometry relative="1" as="geometry"/>
                </mxCell>
                <mxCell id="T9ikg00Gk9EtKJGUvpTq-54" style="edgeStyle=none;html=1;entryX=0.5;entryY=0;entryDx=0;entryDy=0;fontFamily=Verdana;" parent="T9ikg00Gk9EtKJGUvpTq-52" edge="1">
                    <mxGeometry relative="1" as="geometry"/>
                </mxCell>
                <mxCell id="T9ikg00Gk9EtKJGUvpTq-55" style="edgeStyle=none;html=1;entryX=1;entryY=0.5;entryDx=0;entryDy=0;entryPerimeter=0;fontFamily=Verdana;" parent="T9ikg00Gk9EtKJGUvpTq-52" edge="1">
                    <mxGeometry relative="1" as="geometry">
                        <mxPoint x="430" y="300" as="sourcePoint"/>
                    </mxGeometry>
                </mxCell>
                <mxCell id="T9ikg00Gk9EtKJGUvpTq-56" value="" style="edgeStyle=none;html=1;fontFamily=Verdana;" parent="T9ikg00Gk9EtKJGUvpTq-52" edge="1">
                    <mxGeometry relative="1" as="geometry">
                        <mxPoint x="350" y="300" as="sourcePoint"/>
                        <mxPoint x="290" y="300" as="targetPoint"/>
                    </mxGeometry>
                </mxCell>
                <mxCell id="T9ikg00Gk9EtKJGUvpTq-57" value="" style="edgeStyle=none;html=1;fontFamily=Verdana;" parent="T9ikg00Gk9EtKJGUvpTq-52" edge="1">
                    <mxGeometry relative="1" as="geometry">
                        <mxPoint x="200" y="180" as="sourcePoint"/>
                        <mxPoint x="200" y="130" as="targetPoint"/>
                    </mxGeometry>
                </mxCell>
                <mxCell id="T9ikg00Gk9EtKJGUvpTq-58" value="" style="edgeStyle=none;html=1;fontFamily=Verdana;" parent="T9ikg00Gk9EtKJGUvpTq-52" edge="1">
                    <mxGeometry relative="1" as="geometry">
                        <mxPoint x="200" y="230" as="sourcePoint"/>
                        <mxPoint x="200" y="200" as="targetPoint"/>
                    </mxGeometry>
                </mxCell>
                <mxCell id="T9ikg00Gk9EtKJGUvpTq-59" value="copy the package to &lt;br&gt;tcp tunnel for each of conn" style="text;html=1;align=center;verticalAlign=middle;resizable=0;points=[];autosize=1;strokeColor=none;fillColor=none;fontSize=8;fontFamily=Verdana;" parent="T9ikg00Gk9EtKJGUvpTq-52" vertex="1">
                    <mxGeometry x="300" y="340" width="130" height="30" as="geometry"/>
                </mxCell>
                <mxCell id="T9ikg00Gk9EtKJGUvpTq-60" style="edgeStyle=none;html=1;entryX=1;entryY=0.5;entryDx=0;entryDy=0;entryPerimeter=0;" parent="T9ikg00Gk9EtKJGUvpTq-52" source="T9ikg00Gk9EtKJGUvpTq-14" target="T9ikg00Gk9EtKJGUvpTq-6" edge="1">
                    <mxGeometry relative="1" as="geometry"/>
                </mxCell>
                <mxCell id="T9ikg00Gk9EtKJGUvpTq-61" style="edgeStyle=none;html=1;entryX=0;entryY=0.5;entryDx=0;entryDy=0;entryPerimeter=0;" parent="T9ikg00Gk9EtKJGUvpTq-52" source="T9ikg00Gk9EtKJGUvpTq-62" target="T9ikg00Gk9EtKJGUvpTq-8" edge="1">
                    <mxGeometry relative="1" as="geometry"/>
                </mxCell>
                <mxCell id="T9ikg00Gk9EtKJGUvpTq-62" value="" style="ellipse;html=1;shape=startState;fontFamily=Verdana;fillColor=#d5e8d4;strokeColor=#82b366;" parent="T9ikg00Gk9EtKJGUvpTq-52" vertex="1">
                    <mxGeometry x="480" y="100" width="30" height="30" as="geometry"/>
                </mxCell>
                <mxCell id="T9ikg00Gk9EtKJGUvpTq-63" style="edgeStyle=none;html=1;" parent="T9ikg00Gk9EtKJGUvpTq-52" source="T9ikg00Gk9EtKJGUvpTq-64" target="T9ikg00Gk9EtKJGUvpTq-8" edge="1">
                    <mxGeometry relative="1" as="geometry"/>
                </mxCell>
                <mxCell id="T9ikg00Gk9EtKJGUvpTq-64" value="" style="ellipse;html=1;shape=startState;fontFamily=Verdana;fillColor=#d5e8d4;strokeColor=#82b366;" parent="T9ikg00Gk9EtKJGUvpTq-52" vertex="1">
                    <mxGeometry x="530" y="100" width="30" height="30" as="geometry"/>
                </mxCell>
                <mxCell id="T9ikg00Gk9EtKJGUvpTq-65" style="edgeStyle=none;html=1;" parent="T9ikg00Gk9EtKJGUvpTq-52" source="T9ikg00Gk9EtKJGUvpTq-10" edge="1">
                    <mxGeometry relative="1" as="geometry">
                        <mxPoint x="520" y="180" as="targetPoint"/>
                    </mxGeometry>
                </mxCell>
                <mxCell id="T9ikg00Gk9EtKJGUvpTq-66" value="build a mapping of conn/request" style="text;html=1;align=center;verticalAlign=middle;resizable=0;points=[];autosize=1;strokeColor=none;fillColor=none;fontSize=8;fontFamily=Verdana;" parent="T9ikg00Gk9EtKJGUvpTq-52" vertex="1">
                    <mxGeometry x="540" y="205" width="150" height="20" as="geometry"/>
                </mxCell>
                <mxCell id="T9ikg00Gk9EtKJGUvpTq-67" value="build a mapping of conn/request" style="text;html=1;align=center;verticalAlign=middle;resizable=0;points=[];autosize=1;strokeColor=none;fillColor=none;fontSize=8;fontFamily=Verdana;" parent="T9ikg00Gk9EtKJGUvpTq-52" vertex="1">
                    <mxGeometry x="30" y="205" width="150" height="20" as="geometry"/>
                </mxCell>
                <mxCell id="T9ikg00Gk9EtKJGUvpTq-68" value="" style="shape=providedRequiredInterface;html=1;verticalLabelPosition=bottom;sketch=0;fontFamily=Verdana;rotation=-90;fillColor=#e1d5e7;strokeColor=#9673a6;" parent="T9ikg00Gk9EtKJGUvpTq-52" vertex="1">
                    <mxGeometry x="210" y="180" width="20" height="20" as="geometry"/>
                </mxCell>
                <mxCell id="T9ikg00Gk9EtKJGUvpTq-69" value="" style="shape=providedRequiredInterface;html=1;verticalLabelPosition=bottom;sketch=0;fontFamily=Verdana;rotation=-90;fillColor=#e1d5e7;strokeColor=#9673a6;" parent="T9ikg00Gk9EtKJGUvpTq-52" vertex="1">
                    <mxGeometry x="170" y="180" width="20" height="20" as="geometry"/>
                </mxCell>
                <mxCell id="T9ikg00Gk9EtKJGUvpTq-70" style="edgeStyle=none;html=1;entryX=0;entryY=0.5;entryDx=0;entryDy=0;entryPerimeter=0;" parent="T9ikg00Gk9EtKJGUvpTq-52" source="T9ikg00Gk9EtKJGUvpTq-12" target="T9ikg00Gk9EtKJGUvpTq-69" edge="1">
                    <mxGeometry relative="1" as="geometry"/>
                </mxCell>
                <mxCell id="T9ikg00Gk9EtKJGUvpTq-71" style="edgeStyle=none;html=1;entryX=0;entryY=0.5;entryDx=0;entryDy=0;entryPerimeter=0;" parent="T9ikg00Gk9EtKJGUvpTq-52" source="T9ikg00Gk9EtKJGUvpTq-12" target="T9ikg00Gk9EtKJGUvpTq-68" edge="1">
                    <mxGeometry relative="1" as="geometry"/>
                </mxCell>
            </root>
        </mxGraphModel>
    </diagram>
</mxfile>